<?xml version="1.0" encoding="utf-8"?><svg xmlns="http://www.w3.org/2000/svg" xmlns:xlink="http://www.w3.org/1999/xlink" width="877" height="428" preserveAspectRatio="xMidYMid" viewBox="0 0 877 428" style="z-index:1;margin-right:-2px;display:block;background-repeat-y:initial;background-repeat-x:initial;background-color:rgb(241, 242, 243);animation-play-state:paused" ><g transform="" style="animation-play-state:paused" ><g id="bk-0.35990162528896086" style="animation-play-state:paused" ><path d="M 406 286 L 416 198 L 311 195 Z" stroke="#00b8d8" fill="#00b8d8" style="animation-play-state:paused" ></path>
<path d="M 311 195 L 328 308 L 406 286 Z" stroke="#00c1e4" fill="#00c1e4" style="animation-play-state:paused" ></path>
<path d="M 416 198 L 335 93 L 311 195 Z" stroke="#04a3bc" fill="#04a3bc" style="animation-play-state:paused" ></path>
<path d="M 206 80 L 237 194 L 311 195 Z" stroke="#079cb2" fill="#079cb2" style="animation-play-state:paused" ></path>
<path d="M 311 195 L 237 194 L 328 308 Z" stroke="#00b4d3" fill="#00b4d3" style="animation-play-state:paused" ></path>
<path d="M 416 198 L 419 109 L 335 93 Z" stroke="#069cb2" fill="#069cb2" style="animation-play-state:paused" ></path>
<path d="M 521 307 L 508 191 L 416 198 Z" stroke="#00bfe2" fill="#00bfe2" style="animation-play-state:paused" ></path>
<path d="M 416 198 L 508 191 L 419 109 Z" stroke="#03a9c4" fill="#03a9c4" style="animation-play-state:paused" ></path>
<path d="M 237 194 L 239 296 L 328 308 Z" stroke="#00bcde" fill="#00bcde" style="animation-play-state:paused" ></path>
<path d="M 506 399 L 521 307 L 406 286 Z" stroke="#03a8c1" fill="#03a8c1" style="animation-play-state:paused" ></path>
<path d="M 406 286 L 521 307 L 416 198 Z" stroke="#00bddf" fill="#00bddf" style="animation-play-state:paused" ></path>
<path d="M 415 389 L 406 286 L 328 308 Z" stroke="#01afcb" fill="#01afcb" style="animation-play-state:paused" ></path>
<path d="M 326 397 L 415 389 L 328 308 Z" stroke="#03a7c1" fill="#03a7c1" style="animation-play-state:paused" ></path>
<path d="M 245 427 L 326 397 L 328 308 Z" stroke="#03a8c3" fill="#03a8c3" style="animation-play-state:paused" ></path>
<path d="M 618 193 L 517 89 L 508 191 Z" stroke="#02abc6" fill="#02abc6" style="animation-play-state:paused" ></path>
<path d="M 508 191 L 517 89 L 419 109 Z" stroke="#059fb6" fill="#059fb6" style="animation-play-state:paused" ></path>
<path d="M 228 -5 L 206 80 L 335 93 Z" stroke="#0f7f8c" fill="#0f7f8c" style="animation-play-state:paused" ></path>
<path d="M 335 93 L 206 80 L 311 195 Z" stroke="#0994a7" fill="#0994a7" style="animation-play-state:paused" ></path>
<path d="M 237 194 L 134 308 L 239 296 Z" stroke="#00b8d7" fill="#00b8d7" style="animation-play-state:paused" ></path>
<path d="M 400 -17 L 335 93 L 419 109 Z" stroke="#0e8695" fill="#0e8695" style="animation-play-state:paused" ></path>
<path d="M 415 389 L 506 399 L 406 286 Z" stroke="#04a2ba" fill="#04a2ba" style="animation-play-state:paused" ></path>
<path d="M 133 412 L 245 427 L 239 296 Z" stroke="#01b0cd" fill="#01b0cd" style="animation-play-state:paused" ></path>
<path d="M 239 296 L 245 427 L 328 308 Z" stroke="#01b3d1" fill="#01b3d1" style="animation-play-state:paused" ></path>
<path d="M 627 305 L 618 193 L 521 307 Z" stroke="#00b4d2" fill="#00b4d2" style="animation-play-state:paused" ></path>
<path d="M 521 307 L 618 193 L 508 191 Z" stroke="#00c2e6" fill="#00c2e6" style="animation-play-state:paused" ></path>
<path d="M 520 -22 L 400 -17 L 419 109 Z" stroke="#107d89" fill="#107d89" style="animation-play-state:paused" ></path>
<path d="M 108 197 L 134 308 L 237 194 Z" stroke="#02acc7" fill="#02acc7" style="animation-play-state:paused" ></path>
<path d="M 400 -17 L 300 -5 L 335 93 Z" stroke="#117985" fill="#117985" style="animation-play-state:paused" ></path>
<path d="M 245 427 L 306 486 L 326 397 Z" stroke="#079cb2" fill="#079cb2" style="animation-play-state:paused" ></path>
<path d="M 326 397 L 408 498 L 415 389 Z" stroke="#0996aa" fill="#0996aa" style="animation-play-state:paused" ></path>
<path d="M 415 389 L 408 498 L 506 399 Z" stroke="#0a91a3" fill="#0a91a3" style="animation-play-state:paused" ></path>
<path d="M 208 491 L 306 486 L 245 427 Z" stroke="#079aaf" fill="#079aaf" style="animation-play-state:paused" ></path>
<path d="M 620 377 L 627 305 L 521 307 Z" stroke="#05a1b9" fill="#05a1b9" style="animation-play-state:paused" ></path>
<path d="M 98 108 L 108 197 L 206 80 Z" stroke="#0c8d9e" fill="#0c8d9e" style="animation-play-state:paused" ></path>
<path d="M 206 80 L 108 197 L 237 194 Z" stroke="#0898ad" fill="#0898ad" style="animation-play-state:paused" ></path>
<path d="M 300 -5 L 228 -5 L 335 93 Z" stroke="#117883" fill="#117883" style="animation-play-state:paused" ></path>
<path d="M 306 486 L 408 498 L 326 397 Z" stroke="#0a92a5" fill="#0a92a5" style="animation-play-state:paused" ></path>
<path d="M 506 399 L 620 377 L 521 307 Z" stroke="#079bb0" fill="#079bb0" style="animation-play-state:paused" ></path>
<path d="M 517 89 L 520 -22 L 419 109 Z" stroke="#0d8999" fill="#0d8999" style="animation-play-state:paused" ></path>
<path d="M 400 -17 L 332 -106 L 300 -5 Z" stroke="#42929c" fill="#42929c" style="animation-play-state:paused" ></path>
<path d="M 617 1 L 520 -22 L 517 89 Z" stroke="#0f808e" fill="#0f808e" style="animation-play-state:paused" ></path>
<path d="M 528 525 L 620 377 L 506 399 Z" stroke="#0d8796" fill="#0d8796" style="animation-play-state:paused" ></path>
<path d="M 718 186 L 644 112 L 618 193 Z" stroke="#01b1cf" fill="#01b1cf" style="animation-play-state:paused" ></path>
<path d="M 618 193 L 644 112 L 517 89 Z" stroke="#04a4bd" fill="#04a4bd" style="animation-play-state:paused" ></path>
<path d="M 228 -5 L 98 108 L 206 80 Z" stroke="#107c89" fill="#107c89" style="animation-play-state:paused" ></path>
<path d="M 33 318 L 133 412 L 134 308 Z" stroke="#00c1e4" fill="#00c1e4" style="animation-play-state:paused" ></path>
<path d="M 134 308 L 133 412 L 239 296 Z" stroke="#00bdde" fill="#00bdde" style="animation-play-state:paused" ></path>
<path d="M 133 412 L 208 491 L 245 427 Z" stroke="#04a4bc" fill="#04a4bc" style="animation-play-state:paused" ></path>
<path d="M 306 486 L 325 580 L 408 498 Z" stroke="#0d8898" fill="#0d8898" style="animation-play-state:paused" ></path>
<path d="M 501 600 L 528 525 L 408 498 Z" stroke="#117883" fill="#117883" style="animation-play-state:paused" ></path>
<path d="M 408 498 L 528 525 L 506 399 Z" stroke="#0e8492" fill="#0e8492" style="animation-play-state:paused" ></path>
<path d="M 422 -95 L 332 -106 L 400 -17 Z" stroke="#529da8" fill="#529da8" style="animation-play-state:paused" ></path>
<path d="M 300 -5 L 216 -96 L 228 -5 Z" stroke="#46949f" fill="#46949f" style="animation-play-state:paused" ></path>
<path d="M 228 -5 L 108 -4 L 98 108 Z" stroke="#217e89" fill="#217e89" style="animation-play-state:paused" ></path>
<path d="M 524 -96 L 422 -95 L 520 -22 Z" stroke="#4a97a2" fill="#4a97a2" style="animation-play-state:paused" ></path>
<path d="M 520 -22 L 422 -95 L 400 -17 Z" stroke="#3c8d98" fill="#3c8d98" style="animation-play-state:paused" ></path>
<path d="M 726 400 L 709 281 L 627 305 Z" stroke="#069db3" fill="#069db3" style="animation-play-state:paused" ></path>
<path d="M 627 305 L 709 281 L 618 193 Z" stroke="#00b4d2" fill="#00b4d2" style="animation-play-state:paused" ></path>
<path d="M 726 400 L 627 305 L 620 377 Z" stroke="#0994a8" fill="#0994a8" style="animation-play-state:paused" ></path>
<path d="M 703 97 L 617 1 L 644 112 Z" stroke="#0a92a5" fill="#0a92a5" style="animation-play-state:paused" ></path>
<path d="M 644 112 L 617 1 L 517 89 Z" stroke="#0b90a2" fill="#0b90a2" style="animation-play-state:paused" ></path>
<path d="M 38 102 L 28 192 L 108 197 Z" stroke="#0a92a4" fill="#0a92a4" style="animation-play-state:paused" ></path>
<path d="M 108 197 L 33 318 L 134 308 Z" stroke="#01b1cf" fill="#01b1cf" style="animation-play-state:paused" ></path>
<path d="M 709 281 L 718 186 L 618 193 Z" stroke="#00c0e3" fill="#00c0e3" style="animation-play-state:paused" ></path>
<path d="M 28 192 L 33 318 L 108 197 Z" stroke="#04a5be" fill="#04a5be" style="animation-play-state:paused" ></path>
<path d="M 216 -96 L 108 -4 L 228 -5 Z" stroke="#4c98a3" fill="#4c98a3" style="animation-play-state:paused" ></path>
<path d="M 98 108 L 38 102 L 108 197 Z" stroke="#0c8c9c" fill="#0c8c9c" style="animation-play-state:paused" ></path>
<path d="M 332 -106 L 216 -96 L 300 -5 Z" stroke="#58a1ac" fill="#58a1ac" style="animation-play-state:paused" ></path>
<path d="M 112 -99 L 216 -96 L 332 -106 Z" stroke="#6fb4be" fill="#6fb4be" style="animation-play-state:paused" ></path>
<path d="M 108 -4 L 38 102 L 98 108 Z" stroke="#117985" fill="#117985" style="animation-play-state:paused" ></path>
<path d="M 208 491 L 325 580 L 306 486 Z" stroke="#0b8fa1" fill="#0b8fa1" style="animation-play-state:paused" ></path>
<path d="M 133 412 L 100 504 L 208 491 Z" stroke="#04a4bd" fill="#04a4bd" style="animation-play-state:paused" ></path>
<path d="M 208 491 L 224 605 L 325 580 Z" stroke="#0b8e9f" fill="#0b8e9f" style="animation-play-state:paused" ></path>
<path d="M 16 416 L 100 504 L 133 412 Z" stroke="#01afcb" fill="#01afcb" style="animation-play-state:paused" ></path>
<path d="M 628 -118 L 524 -96 L 520 -22 Z" stroke="#4b98a3" fill="#4b98a3" style="animation-play-state:paused" ></path>
<path d="M 718 186 L 703 97 L 644 112 Z" stroke="#03a8c1" fill="#03a8c1" style="animation-play-state:paused" ></path>
<path d="M 617 1 L 628 -118 L 520 -22 Z" stroke="#338893" fill="#338893" style="animation-play-state:paused" ></path>
<path d="M 628 615 L 628 502 L 528 525 Z" stroke="#338792" fill="#338792" style="animation-play-state:paused" ></path>
<path d="M 528 525 L 628 502 L 620 377 Z" stroke="#107c88" fill="#107c88" style="animation-play-state:paused" ></path>
<path d="M 325 580 L 444 595 L 408 498 Z" stroke="#0f7f8c" fill="#0f7f8c" style="animation-play-state:paused" ></path>
<path d="M -1 494 L 16 416 L -77 391 Z" stroke="#00bbdc" fill="#00bbdc" style="animation-play-state:paused" ></path>
<path d="M 33 318 L 16 416 L 133 412 Z" stroke="#00bdde" fill="#00bdde" style="animation-play-state:paused" ></path>
<path d="M 444 595 L 501 600 L 408 498 Z" stroke="#117883" fill="#117883" style="animation-play-state:paused" ></path>
<path d="M 101 605 L 224 605 L 208 491 Z" stroke="#0995a9" fill="#0995a9" style="animation-play-state:paused" ></path>
<path d="M 325 580 L 224 605 L 444 595 Z" stroke="#0f8391" fill="#0f8391" style="animation-play-state:paused" ></path>
<path d="M 628 502 L 726 400 L 620 377 Z" stroke="#0f828f" fill="#0f828f" style="animation-play-state:paused" ></path>
<path d="M 709 281 L 809 290 L 718 186 Z" stroke="#01b3d1" fill="#01b3d1" style="animation-play-state:paused" ></path>
<path d="M 718 186 L 814 101 L 703 97 Z" stroke="#03a8c2" fill="#03a8c2" style="animation-play-state:paused" ></path>
<path d="M 820 22 L 714 -10 L 703 97 Z" stroke="#0d8a9a" fill="#0d8a9a" style="animation-play-state:paused" ></path>
<path d="M 703 97 L 714 -10 L 617 1 Z" stroke="#0e8695" fill="#0e8695" style="animation-play-state:paused" ></path>
<path d="M 714 -10 L 628 -118 L 617 1 Z" stroke="#2c838e" fill="#2c838e" style="animation-play-state:paused" ></path>
<path d="M 216 -96 L 112 -99 L 108 -4 Z" stroke="#62a9b4" fill="#62a9b4" style="animation-play-state:paused" ></path>
<path d="M 108 -4 L 13 -28 L 38 102 Z" stroke="#358994" fill="#358994" style="animation-play-state:paused" ></path>
<path d="M 422 -95 L 112 -99 L 332 -106 Z" stroke="#6aafba" fill="#6aafba" style="animation-play-state:paused" ></path>
<path d="M 524 -96 L 112 -99 L 422 -95 Z" stroke="#63aab5" fill="#63aab5" style="animation-play-state:paused" ></path>
<path d="M 1019 -121 L 112 -99 L 524 -96 Z" stroke="#5da5b0" fill="#5da5b0" style="animation-play-state:paused" ></path>
<path d="M 628 502 L 705 503 L 726 400 Z" stroke="#1a7a85" fill="#1a7a85" style="animation-play-state:paused" ></path>
<path d="M 726 591 L 705 503 L 628 502 Z" stroke="#40909b" fill="#40909b" style="animation-play-state:paused" ></path>
<path d="M 40 -78 L 13 -28 L 108 -4 Z" stroke="#59a2ad" fill="#59a2ad" style="animation-play-state:paused" ></path>
<path d="M -65 197 L -71 316 L 28 192 Z" stroke="#069db4" fill="#069db4" style="animation-play-state:paused" ></path>
<path d="M -71 316 L 16 416 L 33 318 Z" stroke="#00badb" fill="#00badb" style="animation-play-state:paused" ></path>
<path d="M 16 416 L -1 494 L 100 504 Z" stroke="#01afcc" fill="#01afcc" style="animation-play-state:paused" ></path>
<path d="M 100 504 L 101 605 L 208 491 Z" stroke="#069db3" fill="#069db3" style="animation-play-state:paused" ></path>
<path d="M -71 316 L 33 318 L 28 192 Z" stroke="#02aac4" fill="#02aac4" style="animation-play-state:paused" ></path>
<path d="M 813 386 L 809 290 L 726 400 Z" stroke="#0b8fa1" fill="#0b8fa1" style="animation-play-state:paused" ></path>
<path d="M 726 400 L 809 290 L 709 281 Z" stroke="#079cb1" fill="#079cb1" style="animation-play-state:paused" ></path>
<path d="M 16 596 L 101 605 L 100 504 Z" stroke="#05a1b8" fill="#05a1b8" style="animation-play-state:paused" ></path>
<path d="M 224 605 L 16 596 L 444 595 Z" stroke="#0b8e9f" fill="#0b8e9f" style="animation-play-state:paused" ></path>
<path d="M -65 197 L 28 192 L 38 102 Z" stroke="#0b8e9f" fill="#0b8e9f" style="animation-play-state:paused" ></path>
<path d="M -76 96 L -65 197 L 38 102 Z" stroke="#0e8391" fill="#0e8391" style="animation-play-state:paused" ></path>
<path d="M 444 595 L 628 615 L 501 600 Z" stroke="#308590" fill="#308590" style="animation-play-state:paused" ></path>
<path d="M 501 600 L 628 615 L 528 525 Z" stroke="#328792" fill="#328792" style="animation-play-state:paused" ></path>
<path d="M 809 290 L 832 214 L 718 186 Z" stroke="#00b9d9" fill="#00b9d9" style="animation-play-state:paused" ></path>
<path d="M 13 -28 L -76 96 L 38 102 Z" stroke="#26808b" fill="#26808b" style="animation-play-state:paused" ></path>
<path d="M 112 -99 L 40 -78 L 108 -4 Z" stroke="#64aab5" fill="#64aab5" style="animation-play-state:paused" ></path>
<path d="M 13 -28 L -87 -20 L -76 96 Z" stroke="#46949f" fill="#46949f" style="animation-play-state:paused" ></path>
<path d="M 832 214 L 814 101 L 718 186 Z" stroke="#00b6d5" fill="#00b6d5" style="animation-play-state:paused" ></path>
<path d="M 841 518 L 813 386 L 705 503 Z" stroke="#2d848f" fill="#2d848f" style="animation-play-state:paused" ></path>
<path d="M 705 503 L 813 386 L 726 400 Z" stroke="#107b88" fill="#107b88" style="animation-play-state:paused" ></path>
<path d="M 903 298 L 909 191 L 832 214 Z" stroke="#00b5d4" fill="#00b5d4" style="animation-play-state:paused" ></path>
<path d="M -189 287 L -77 391 L -71 316 Z" stroke="#02adc8" fill="#02adc8" style="animation-play-state:paused" ></path>
<path d="M -71 316 L -77 391 L 16 416 Z" stroke="#00bcdd" fill="#00bcdd" style="animation-play-state:paused" ></path>
<path d="M 820 22 L 727 -78 L 714 -10 Z" stroke="#117782" fill="#117782" style="animation-play-state:paused" ></path>
<path d="M 714 -10 L 727 -78 L 628 -118 Z" stroke="#3e8f99" fill="#3e8f99" style="animation-play-state:paused" ></path>
<path d="M 628 615 L 726 591 L 628 502 Z" stroke="#4896a1" fill="#4896a1" style="animation-play-state:paused" ></path>
<path d="M -69 612 L 16 596 L -1 494 Z" stroke="#02abc6" fill="#02abc6" style="animation-play-state:paused" ></path>
<path d="M -1 494 L 16 596 L 100 504 Z" stroke="#03a8c2" fill="#03a8c2" style="animation-play-state:paused" ></path>
<path d="M 101 605 L 16 596 L 224 605 Z" stroke="#079bb0" fill="#079bb0" style="animation-play-state:paused" ></path>
<path d="M 912 90 L 820 22 L 814 101 Z" stroke="#0897ab" fill="#0897ab" style="animation-play-state:paused" ></path>
<path d="M 814 101 L 820 22 L 703 97 Z" stroke="#0897ab" fill="#0897ab" style="animation-play-state:paused" ></path>
<path d="M -181 104 L -177 202 L -65 197 Z" stroke="#0e8594" fill="#0e8594" style="animation-play-state:paused" ></path>
<path d="M -65 197 L -189 287 L -71 316 Z" stroke="#069fb6" fill="#069fb6" style="animation-play-state:paused" ></path>
<path d="M -80 -79 L -87 -20 L 13 -28 Z" stroke="#67adb8" fill="#67adb8" style="animation-play-state:paused" ></path>
<path d="M -77 391 L -87 509 L -1 494 Z" stroke="#00badb" fill="#00badb" style="animation-play-state:paused" ></path>
<path d="M -188 491 L -87 509 L -77 391 Z" stroke="#00c1e4" fill="#00c1e4" style="animation-play-state:paused" ></path>
<path d="M 112 -99 L -80 -79 L 40 -78 Z" stroke="#78bac5" fill="#78bac5" style="animation-play-state:paused" ></path>
<path d="M 40 -78 L -80 -79 L 13 -28 Z" stroke="#6eb2bd" fill="#6eb2bd" style="animation-play-state:paused" ></path>
<path d="M 726 591 L 841 518 L 705 503 Z" stroke="#4f9ba5" fill="#4f9ba5" style="animation-play-state:paused" ></path>
<path d="M 903 298 L 832 214 L 809 290 Z" stroke="#02abc6" fill="#02abc6" style="animation-play-state:paused" ></path>
<path d="M 832 214 L 909 191 L 814 101 Z" stroke="#00b8d8" fill="#00b8d8" style="animation-play-state:paused" ></path>
<path d="M -181 104 L -76 96 L -87 -20 Z" stroke="#358893" fill="#358893" style="animation-play-state:paused" ></path>
<path d="M -181 104 L -65 197 L -76 96 Z" stroke="#107e8b" fill="#107e8b" style="animation-play-state:paused" ></path>
<path d="M -194 -21 L -181 104 L -87 -20 Z" stroke="#509ca6" fill="#509ca6" style="animation-play-state:paused" ></path>
<path d="M 903 298 L 809 290 L 813 386 Z" stroke="#0898ad" fill="#0898ad" style="animation-play-state:paused" ></path>
<path d="M -177 202 L -189 287 L -65 197 Z" stroke="#0993a6" fill="#0993a6" style="animation-play-state:paused" ></path>
<path d="M 921 407 L 903 298 L 813 386 Z" stroke="#0c8a9b" fill="#0c8a9b" style="animation-play-state:paused" ></path>
<path d="M 941 -94 L 836 -102 L 820 22 Z" stroke="#2f8590" fill="#2f8590" style="animation-play-state:paused" ></path>
<path d="M 820 22 L 836 -102 L 727 -78 Z" stroke="#2e848f" fill="#2e848f" style="animation-play-state:paused" ></path>
<path d="M 727 -78 L 836 -102 L 628 -118 Z" stroke="#519ca7" fill="#519ca7" style="animation-play-state:paused" ></path>
<path d="M 909 191 L 912 90 L 814 101 Z" stroke="#02aac5" fill="#02aac5" style="animation-play-state:paused" ></path>
<path d="M 918 512 L 921 407 L 813 386 Z" stroke="#1d7c87" fill="#1d7c87" style="animation-play-state:paused" ></path>
<path d="M -194 -21 L -183 381 L -189 287 Z" stroke="#0c8d9e" fill="#0c8d9e" style="animation-play-state:paused" ></path>
<path d="M -189 287 L -183 381 L -77 391 Z" stroke="#02aeca" fill="#02aeca" style="animation-play-state:paused" ></path>
<path d="M -176 619 L -69 612 L -87 509 Z" stroke="#00b5d4" fill="#00b5d4" style="animation-play-state:paused" ></path>
<path d="M -87 509 L -69 612 L -1 494 Z" stroke="#01b1cf" fill="#01b1cf" style="animation-play-state:paused" ></path>
<path d="M 16 596 L -176 619 L 444 595 Z" stroke="#069db3" fill="#069db3" style="animation-play-state:paused" ></path>
<path d="M 726 591 L 833 604 L 841 518 Z" stroke="#64aab5" fill="#64aab5" style="animation-play-state:paused" ></path>
<path d="M 841 518 L 918 512 L 813 386 Z" stroke="#388a95" fill="#388a95" style="animation-play-state:paused" ></path>
<path d="M 628 615 L 833 604 L 726 591 Z" stroke="#5fa6b1" fill="#5fa6b1" style="animation-play-state:paused" ></path>
<path d="M 1020 90 L 930 18 L 912 90 Z" stroke="#0897ab" fill="#0897ab" style="animation-play-state:paused" ></path>
<path d="M 912 90 L 930 18 L 820 22 Z" stroke="#0b8ea0" fill="#0b8ea0" style="animation-play-state:paused" ></path>
<path d="M 1020 90 L 912 90 L 909 191 Z" stroke="#02aac5" fill="#02aac5" style="animation-play-state:paused" ></path>
<path d="M -181 104 L -194 -21 L -177 202 Z" stroke="#29828d" fill="#29828d" style="animation-play-state:paused" ></path>
<path d="M -177 202 L -194 -21 L -189 287 Z" stroke="#0f7f8c" fill="#0f7f8c" style="animation-play-state:paused" ></path>
<path d="M -171 -85 L -194 -21 L -87 -20 Z" stroke="#72b6c0" fill="#72b6c0" style="animation-play-state:paused" ></path>
<path d="M 900 601 L 918 512 L 841 518 Z" stroke="#65abb6" fill="#65abb6" style="animation-play-state:paused" ></path>
<path d="M 921 407 L 1040 311 L 903 298 Z" stroke="#0a91a3" fill="#0a91a3" style="animation-play-state:paused" ></path>
<path d="M 903 298 L 1030 204 L 909 191 Z" stroke="#00b5d4" fill="#00b5d4" style="animation-play-state:paused" ></path>
<path d="M -194 -21 L -188 491 L -183 381 Z" stroke="#079cb2" fill="#079cb2" style="animation-play-state:paused" ></path>
<path d="M -183 381 L -188 491 L -77 391 Z" stroke="#00bada" fill="#00bada" style="animation-play-state:paused" ></path>
<path d="M 112 -99 L -171 -85 L -80 -79 Z" stroke="#80c1cb" fill="#80c1cb" style="animation-play-state:paused" ></path>
<path d="M -80 -79 L -171 -85 L -87 -20 Z" stroke="#78bbc5" fill="#78bbc5" style="animation-play-state:paused" ></path>
<path d="M 833 604 L 900 601 L 841 518 Z" stroke="#6fb3be" fill="#6fb3be" style="animation-play-state:paused" ></path>
<path d="M 999 -18 L 941 -94 L 930 18 Z" stroke="#137883" fill="#137883" style="animation-play-state:paused" ></path>
<path d="M 930 18 L 941 -94 L 820 22 Z" stroke="#107a86" fill="#107a86" style="animation-play-state:paused" ></path>
<path d="M -188 491 L -176 619 L -87 509 Z" stroke="#00bcde" fill="#00bcde" style="animation-play-state:paused" ></path>
<path d="M -69 612 L -176 619 L 16 596 Z" stroke="#01b0cd" fill="#01b0cd" style="animation-play-state:paused" ></path>
<path d="M 444 595 L 1047 628 L 628 615 Z" stroke="#5ba4ae" fill="#5ba4ae" style="animation-play-state:paused" ></path>
<path d="M 1017 406 L 921 407 L 918 512 Z" stroke="#29828d" fill="#29828d" style="animation-play-state:paused" ></path>
<path d="M 1017 406 L 1040 311 L 921 407 Z" stroke="#0e8593" fill="#0e8593" style="animation-play-state:paused" ></path>
<path d="M 1040 311 L 1030 204 L 903 298 Z" stroke="#03a7c1" fill="#03a7c1" style="animation-play-state:paused" ></path>
<path d="M 1030 204 L 1020 90 L 909 191 Z" stroke="#00b7d7" fill="#00b7d7" style="animation-play-state:paused" ></path>
<path d="M 1042 527 L 1017 406 L 918 512 Z" stroke="#4896a1" fill="#4896a1" style="animation-play-state:paused" ></path>
<path d="M 1040 311 L 1042 527 L 1030 204 Z" stroke="#0c8d9e" fill="#0c8d9e" style="animation-play-state:paused" ></path>
<path d="M 1020 90 L 999 -18 L 930 18 Z" stroke="#0c8b9b" fill="#0c8b9b" style="animation-play-state:paused" ></path>
<path d="M 1019 -121 L 999 -18 L 1020 90 Z" stroke="#107c88" fill="#107c88" style="animation-play-state:paused" ></path>
<path d="M 900 601 L 1042 527 L 918 512 Z" stroke="#6eb2bd" fill="#6eb2bd" style="animation-play-state:paused" ></path>
<path d="M 1017 406 L 1042 527 L 1040 311 Z" stroke="#117782" fill="#117782" style="animation-play-state:paused" ></path>
<path d="M 1030 204 L 1019 -121 L 1020 90 Z" stroke="#0994a8" fill="#0994a8" style="animation-play-state:paused" ></path>
<path d="M 999 -18 L 1019 -121 L 941 -94 Z" stroke="#3c8d98" fill="#3c8d98" style="animation-play-state:paused" ></path>
<path d="M 941 -94 L 1019 -121 L 836 -102 Z" stroke="#509ba6" fill="#509ba6" style="animation-play-state:paused" ></path>
<path d="M 836 -102 L 1019 -121 L 628 -118 Z" stroke="#57a1ac" fill="#57a1ac" style="animation-play-state:paused" ></path>
<path d="M 628 -118 L 1019 -121 L 524 -96 Z" stroke="#59a2ad" fill="#59a2ad" style="animation-play-state:paused" ></path>
<path d="M 833 604 L 1047 628 L 900 601 Z" stroke="#88c7d2" fill="#88c7d2" style="animation-play-state:paused" ></path>
<path d="M 900 601 L 1047 628 L 1042 527 Z" stroke="#88c7d2" fill="#88c7d2" style="animation-play-state:paused" ></path>
<path d="M 1042 527 L 1047 628 L 1030 204 Z" stroke="#368994" fill="#368994" style="animation-play-state:paused" ></path>
<path d="M 628 615 L 1047 628 L 833 604 Z" stroke="#77bac4" fill="#77bac4" style="animation-play-state:paused" ></path>
<path d="M -176 619 L 1047 628 L 444 595 Z" stroke="#157883" fill="#157883" style="animation-play-state:paused" ></path></g>
<style type="text/css" style="animation-play-state:paused" >#bk-0.35990162528896086 path { stroke-width: 1 }</style></g></svg>