<?xml version="1.0" encoding="UTF-8"?>
<svg width="200px" height="200px" viewBox="0 0 200 200" version="1.1" xmlns="http://www.w3.org/2000/svg" xmlns:xlink="http://www.w3.org/1999/xlink">
    <!-- Generator: Sketch 60.1 (88133) - https://sketch.com -->
    <title>digital-ocean</title>
    <desc>Created with Sketch.</desc>
    <g id="digital-ocean" stroke="none" stroke-width="1" fill="none" fill-rule="evenodd">
        <g id="digitalocean-icon-1" fill="#FFFFFF">
            <path d="M100.008784,200 L100.008784,161.240857 C141.055938,161.240857 172.919062,120.555992 157.156088,77.3757151 C151.296302,61.3185074 138.640342,48.6676389 122.575487,42.8090265 C79.3728157,27.1705687 38.6668521,58.900831 38.6668521,99.9267082 L0,99.9267082 C0,34.5404627 63.2726658,-16.4590436 131.871908,4.95657666 C161.808313,14.3685371 185.731747,38.163225 195.032182,68.0881241 C216.462923,136.760131 165.54936,200 100.008784,200" id="Path"></path>
            <path d="M61.4879269,161.404704 L100,161.404704 L100,123 L61.4919369,123 L61.4879269,161.404704 Z M31.8098913,191 L61.4839169,191 L61.4839169,161.408703 L31.8098913,161.408703 L31.8098913,191 Z M7,161.408703 L31.8098913,161.408703 L31.8098913,136.663981 L7,136.663981 L7,161.408703 Z" id="Shape"></path>
        </g>
    </g>
</svg>