<?xml version="1.0" encoding="UTF-8"?>
<svg width="200px" height="200px" viewBox="0 0 200 200" version="1.1" xmlns="http://www.w3.org/2000/svg" xmlns:xlink="http://www.w3.org/1999/xlink">
    <!-- Generator: Sketch 60.1 (88133) - https://sketch.com -->
    <title>gatsby</title>
    <desc>Created with Sketch.</desc>
    <g id="gatsby" stroke="none" stroke-width="1" fill="none" fill-rule="evenodd">
        <path d="M100,0 C45,0 0,45 0,100 C0,155 45,200 100,200 C155,200 200,155 200,100 C200,45 155,0 100,0 Z M44.8984507,156.186687 C29.8707554,141.212819 22,121.24766 22,102 L100,179 C79.963073,178.282502 59.9261459,171.157436 44.8984507,156.183568 L44.8984507,156.186687 Z M117.563739,176 L24,82.4244098 C31.8560916,47.4265266 63.283583,21 100.426584,21 C126.854176,21 149.706841,33.8554725 163.997177,53.1418059 L153.278644,62.4224946 C141.144513,45.998488 121.854277,35.2897607 100.426584,35.2897607 C72.5708957,35.2897607 48.999496,53.1449308 39.7090583,78.1434187 L121.854277,160.282201 C142.572609,153.138883 158.281668,135.283713 163.281567,113.856884 L129.001008,113.856884 L129.001008,99.567123 L179,99.567123 C179,136.708626 152.572408,168.134851 117.573113,175.990626 L117.563739,176 Z" id="Shape" fill="#FFFFFF"></path>
    </g>
</svg>