<?xml version="1.0" encoding="UTF-8"?>
<svg width="201px" height="201px" viewBox="0 0 201 201" version="1.1" xmlns="http://www.w3.org/2000/svg" xmlns:xlink="http://www.w3.org/1999/xlink">
    <!-- Generator: Sketch 60.1 (88133) - https://sketch.com -->
    <title>MenuIcon</title>
    <desc>Created with Sketch.</desc>
    <g id="MenuIcon" stroke="none" stroke-width="1" fill="none" fill-rule="evenodd">
        <path d="M7.17857143,45.3265306 L193.821429,45.3265306 C197.786243,45.3265306 201,42.1104898 201,38.1428571 L201,20.1836735 C201,16.2160408 197.786243,13 193.821429,13 L7.17857143,13 C3.2137567,13 0,16.2160408 0,20.1836735 L0,38.1428571 C0,42.1104898 3.2137567,45.3265306 7.17857143,45.3265306 Z M7.17857143,117.163265 L193.821429,117.163265 C197.786243,117.163265 201,113.947224 201,109.979592 L201,92.0204082 C201,88.0527755 197.786243,84.8367347 193.821429,84.8367347 L7.17857143,84.8367347 C3.2137567,84.8367347 0,88.0527755 0,92.0204082 L0,109.979592 C0,113.947224 3.2137567,117.163265 7.17857143,117.163265 Z M7.17857143,189 L193.821429,189 C197.786243,189 201,185.783959 201,181.816327 L201,163.857143 C201,159.88951 197.786243,156.673469 193.821429,156.673469 L7.17857143,156.673469 C3.2137567,156.673469 0,159.88951 0,163.857143 L0,181.816327 C0,185.783959 3.2137567,189 7.17857143,189 Z" id="Shape" fill="#FFFFFF" fill-rule="nonzero"></path>
    </g>
</svg>