<?xml version="1.0" encoding="UTF-8"?>
<svg width="234px" height="58px" viewBox="0 0 234 58" version="1.1" xmlns="http://www.w3.org/2000/svg" xmlns:xlink="http://www.w3.org/1999/xlink">
    <!-- Generator: Sketch 60.1 (88133) - https://sketch.com -->
    <title>Cloud</title>
    <desc>Created with Sketch.</desc>
    <defs>
        <linearGradient x1="0.292158687%" y1="50%" x2="45.732152%" y2="50%" id="linearGradient-1">
            <stop stop-color="#E0EAF2" offset="0.0607052365%"></stop>
            <stop stop-color="#FFFFFF" offset="100%"></stop>
        </linearGradient>
        <linearGradient x1="50%" y1="0%" x2="50%" y2="100%" id="linearGradient-2">
            <stop stop-color="#FFFFFF" stop-opacity="0.5" offset="58.0579603%"></stop>
            <stop stop-color="#D2D4D8" stop-opacity="0.5" offset="100%"></stop>
        </linearGradient>
        <path d="M119.5,0 C127.508129,0 134,4.7009568 134,10.4998809 C134,11.0373082 133.944241,11.565305 133.836684,12.0810033 C136.252214,10.7735138 139.251343,9.99988656 142.5,9.99988656 C146.463974,9.99988656 150.056436,11.1517094 152.67393,13.0183744 C153.113366,13.0060592 153.555515,12.9998525 154,12.9998525 C170.016258,12.9998525 183,21.0586356 183,30.9996483 C183,31.5314244 182.962847,32.0578145 182.890064,32.577873 C188.331615,34.0972068 192.882312,36.6292495 195.919152,39.7870744 C218.080113,41.7478645 234,47.1465087 234,53.4993931 C234,55.0703129 233.026567,56.5828851 231.226057,57.9995495 L0.0330482531,58 C0.01107529,57.8338101 0,57.6669108 0,57.4993477 C0,52.0401001 11.7561107,47.2855154 29.1258053,44.8119765 C29.0429151,44.2141674 29,43.6097412 29,42.9995122 C29,31.416588 44.4618088,21.9243922 64.0881321,21.0633893 C68.5542151,15.9639246 76.3513376,12.0077017 85.8218574,10.1539362 C88.1145423,4.26913345 94.9383685,0 103,0 C106.085891,0 108.990411,0.625539913 111.52881,1.72779443 C113.815808,0.635588713 116.555402,0 119.5,0 Z" id="path-3"></path>
    </defs>
    <g id="Cloud" stroke="none" stroke-width="1" fill="none" fill-rule="evenodd">
        <g id="Combined-Shape">
            <use fill="url(#linearGradient-1)" xlink:href="#path-3"></use>
            <use fill="url(#linearGradient-2)" xlink:href="#path-3"></use>
        </g>
    </g>
</svg>