<?xml version="1.0" encoding="UTF-8"?>
<svg width="1032px" height="365px" viewBox="0 0 1032 365" version="1.1" xmlns="http://www.w3.org/2000/svg" xmlns:xlink="http://www.w3.org/1999/xlink">
    <!-- Generator: Sketch 60.1 (88133) - https://sketch.com -->
    <title>Artboard Copy 6</title>
    <desc>Created with Sketch.</desc>
    <g id="Artboard-Copy-6" stroke="none" stroke-width="1" fill="none" fill-rule="evenodd">
        <rect fill="#FFFFFF" opacity="0" x="0" y="0" width="1032" height="365"></rect>
        <path d="M457.074763,7.43659916 C396.525045,49.0231559 366.250186,69.8164342 366.250186,69.8164342 C336.826438,108.6189 322.114564,128.020133 322.114564,128.020133 C241.503714,146.667968 201.198289,155.991886 201.198289,155.991886 C145.588954,191.335182 117.784287,209.006831 117.784287,209.006831 C97.766242,223.147636 87.7572197,230.218039 87.7572197,230.218039 C35.5912904,265.501949 9.50832569,283.143904 9.50832569,283.143904 C3.1694419,306.092868 0,317.56735 0,317.56735 C75.7012472,321.623677 113.551871,323.65184 113.551871,323.65184 C153.259627,340.491742 173.113505,348.911693 173.113505,348.911693 C221.409218,342.545514 245.557075,339.362424 245.557075,339.362424 C279.452313,352.74523 296.399933,359.436632 296.399933,359.436632 C471.842549,355.580049 559.563858,353.651757 559.563858,353.651757 C596.36279,360.550586 614.762256,364 614.762256,364 C663.940364,354.443048 688.529418,349.664572 688.529418,349.664572 C729.047746,351.774682 749.30691,352.829736 749.30691,352.829736 C836.725536,342.837446 880.434849,337.841302 880.434849,337.841302 C943.960085,349.688656 975.722702,355.612333 975.722702,355.612333 C1015.90757,341.942717 1036,335.107908 1036,335.107908 C1026.71947,306.073418 1022.0792,291.556172 1022.0792,291.556172 C987.491384,273.149053 970.197476,263.945493 970.197476,263.945493 C957.274499,263.796966 950.813011,263.722702 950.813011,263.722702 C883.827975,216.516687 850.335458,192.913679 850.335458,192.913679 C809.95256,183.960043 789.76111,179.483225 789.76111,179.483225 C759.024031,157.507369 743.655491,146.519441 743.655491,146.519441 C709.590956,106.350538 692.558688,86.2660868 692.558688,86.2660868 C637.957958,33.4775003 610.657593,7.08320705 610.657593,7.08320705 L541.141523,0 C485.097017,4.95773277 457.074763,7.43659916 457.074763,7.43659916 Z" id="Path" fill="#ECDDD8"></path>
        <polygon id="Path-2" fill="#F6D1BA" points="132 202 215.412159 181.514024 311.386112 150.882475 322 128 201.202281 155.89552"></polygon>
        <path d="M132,202.04179 C183.275997,212.680597 208.913995,218 208.913995,218 L320,198.010162 L311.830778,151 L132,202.04179 Z" id="Path-3" fill="#D9C8B8"></path>
        <polygon id="Path-4" fill="#E7D0C1" points="312 151 431.749441 95.3663118 498.068423 25.585991 537 2.01172412e-13 457.48513 7.43831632 359.867489 75.8196722 322.858509 127.410349"></polygon>
        <path d="M432,95 L367.777036,174.165541 L320.168508,202 L312,150.684301 C392,113.561434 432,95 432,95 Z" id="Path-5" fill="#E4BDA9"></path>
        <path d="M431.92975,95 C469.108319,113.699889 487.697603,124.430495 487.697603,127.191817 C509.232534,198.397272 520,234 520,234 L405.173454,201.500278 L368,174.458347 C410.619833,121.486116 431.92975,95 431.92975,95 Z" id="Path-6" fill="#DDD0C5"></path>
        <path d="M431,96 L543,72.1656205 L497.429711,26 C453.143237,72.6666667 431,96 431,96 Z" id="Path-7" fill="#D5C5B8"></path>
        <path d="M543.050294,71 C570.685257,94.9659735 584.502738,106.94896 584.502738,106.94896 C608.834246,172.31632 621,205 621,205 L536.916041,196.925572 L487.025147,127.058718 L431,94.8681952 L543.050294,71 Z" id="Path-8" fill="#C6B9AB"></path>
        <path d="M488,128 C508.483613,198.780524 518.725419,234.170786 518.725419,234.170786 L593,301 L543.710845,202.755147 L488,128 Z" id="Path-9" fill="#D3C4BA"></path>
        <polygon id="Path-10" fill="#B9B0A3" points="592.679989 301 621 205.535286 540 198"></polygon>
        <polygon id="Path-11" fill="#BCA89D" points="367 175 371.238706 245 407 202.663314"></polygon>
        <path d="M371.419767,245 C374.285524,245 402.145602,245 455,245 L406.842797,202 C380.361686,230.666667 368.55401,245 371.419767,245 Z" id="Path-12" fill="#8F9294"></path>
        <polygon id="Path-13" fill="#C5C0BD" points="407 203 523 301 518.184759 234.337343"></polygon>
        <polygon id="Path-14" fill="#BBAFA9" points="522.839834 301 593 301 518 234"></polygon>
        <polygon id="Path-15" fill="#8E7D7D" points="371 245 375.982293 301 447 301"></polygon>
        <polygon id="Path-16" fill="#B8AFAD" points="372 245 455.654215 245 523 301 447.567294 301"></polygon>
        <polygon id="Path-17" fill="#C19F8E" points="320 202.767263 377 301 367.767968 175"></polygon>
        <polygon id="Path-18" fill="#C0B1A8" points="209 218.190473 288.850521 237.554164 316.778968 301 377 301 320.151691 198"></polygon>
        <polygon id="Path-19" fill="#BBA498" points="288.336991 238 253 301 316 301"></polygon>
        <polygon id="Path-20" fill="#96928F" points="214.164805 218 166 306 253.365645 300.77572 289 237.355786"></polygon>
        <polygon id="Path-21" fill="#EFC5A9" points="132 203 22.0796355 306.568681 -9.37916411e-13 319 9.73742777 283.932576 10.8210131 283.215289 29.6379924 270.759256"></polygon>
        <polygon id="Path-22" fill="#C4B6A6" points="22 306 99.3992877 275.579274 166 209.405382 132.324038 202"></polygon>
        <polygon id="Path-23" fill="#C3AA9A" points="99 275.766538 165.695761 306 214 218.635627 165.695761 210"></polygon>
        <polygon id="Path-24" fill="#9D8B89" points="22 306 166 306 99.3992877 276"></polygon>
        <polygon id="Path-25" fill="#DDD1C3" points="585 107 692 150.784443 692 188.703408 621.529465 205"></polygon>
        <polygon id="Path-26" fill="#BDB9B4" points="691.770091 189 823 245.121035 707.00083 301 593 301 621.376503 205.247719"></polygon>
        <polygon id="Path-27" fill="#9E9D9D" points="821.961783 245 887 314 706 301.398376"></polygon>
        <path d="M886.902953,313.624816 C891.725672,313.624816 924.758021,315.749878 986,320 L905.040268,279.48295 L841.372039,209.774559 L723,203 L821.882615,245.461715 C860.406788,290.903783 882.080234,313.624816 886.902953,313.624816 Z" id="Path-28" fill="#CEC8C4"></path>
        <polygon id="Path-29" fill="#E7D6CA" points="691 151 739 202 723.241027 202 691 188.567876"></polygon>
        <polygon id="Path-30" fill="#E9D8CC" points="692 151 842 209 739.837133 202.21671"></polygon>
        <polygon id="Path-31" fill="#ECDDD8" points="790 179.798958 770.85465 182 584.896013 107.556183 498 25.6250829 536.948122 2.42472709e-13 610.942678 7.0956673 698.309483 91.3201607 743.906273 146.777187"></polygon>
        <polygon id="Path-32" fill="#E8DCD6" points="774 183.196303 789.224269 181 850.110783 193.786171 950.704888 264.567033 969.373549 264.567033 1022.05374 292.389433 1032 326 986.131943 320.926916 905.129067 280.341707 841.426908 210.516049"></polygon>
        <polygon id="Path-33" fill="#808080" points="1032.25643 324.938395 1036 335.495723 975.736757 355.981393 880.229558 338.865228 749.132193 353.839953 688.368872 350.677684 614.618911 365 559.433384 354.661222 296.330821 360.440806 245.499818 340.384959 173.07314 349.925494 115.489665 325.52176 -9.20152843e-13 318.60982 22.1028683 306.191565 165.726942 306.191565 252.992227 301 707.643287 301 887.44031 313.485329 986.452196 317.971208"></polygon>
        <path d="M541.761397,0 L610.756771,7.09021574 C610.756771,7.09021574 610.781335,7.11399411 610.830465,7.16155085 L698.125739,91.25 L743.723658,146.664419 C743.723658,146.664419 759.008092,157.876496 789.576961,180.300649 C789.576961,180.300649 809.844224,184.56862 850.378749,193.104563 C850.378749,193.104563 882.276213,215.610987 946.071141,260.623836 L949.871,263.305 L950.832874,263.983651 L969.475557,263.983651 L969.889,264.202 L970.212819,264.206662 C970.212819,264.206662 987.158626,273.235996 1021.05024,291.294665 L1022.08245,291.844661 C1022.08245,291.844661 1026.62931,306.087092 1035.72304,334.571954 L1035.995,335.427 L1036,335.439491 L1035.796,335.50897 C1033.64429,336.241809 1014.47092,342.771959 978.275878,355.09942 L975.736757,355.964204 C975.736757,355.964204 947.749949,350.939036 891.776332,340.888698 L880.229558,338.815418 C880.229558,338.815418 837.400049,343.716985 751.741031,353.520119 L749.132193,353.818684 C748.744527,353.79847 730.390271,352.84145 694.063348,350.947307 L688.368872,350.650388 L688.348942,350.654266 C687.697865,350.780946 671.095414,354.011304 638.541587,360.345338 L614.618911,365 L614.593446,364.99522 C613.820112,364.850063 595.433424,361.398829 559.433384,354.641518 C559.433384,354.641518 471.732529,356.571718 296.330821,360.432117 L296.285073,360.414032 C295.298951,360.024207 278.370533,353.332212 245.499818,340.338046 C245.499818,340.338046 221.357592,343.524285 173.07314,349.896764 C173.07314,349.896764 153.89466,341.753299 115.537698,325.46637 L-1.13686838e-13,318.521406 C0.0653094141,318.286254 3.31420908,306.588311 9.74767375,283.424069 C9.74767375,283.424069 35.7440349,265.977934 87.7367573,231.085665 L87.7487653,231.077172 C88.1410275,230.799738 98.1437133,223.72517 117.756823,209.853468 C117.756823,209.853468 145.635529,191.951058 201.392941,156.146237 C201.392941,156.146237 241.688967,146.813093 322.281021,128.146806 C322.281021,128.146806 322.282484,128.144885 322.285409,128.141044 L359.54821,75.8771737 L364.994979,72.0613578 C365.382281,71.5528121 365.772217,71.040808 366.164787,70.5253455 C366.164787,70.5253455 395.909177,49.9166561 455.397957,8.69927715 L457.209752,7.44395753 L536.760382,1.70530257e-13 L539.150361,0.229876561 L540.45076,0.115388942 L540.45076,0.115388942 L541.761397,0 Z" id="Combined-Shape" fill-opacity="0.6" fill="#FFFFFF" style="mix-blend-mode: lighten;"></path>
        <path d="M541.761397,0 L610.756771,7.09021574 C610.756771,7.09021574 610.781335,7.11399411 610.830465,7.16155085 L698.125739,91.25 L743.723658,146.664419 C743.723658,146.664419 759.008092,157.876496 789.576961,180.300649 C789.576961,180.300649 809.844224,184.56862 850.378749,193.104563 C850.378749,193.104563 882.276213,215.610987 946.071141,260.623836 L949.871,263.305 L950.832874,263.983651 L969.475557,263.983651 L969.889,264.202 L970.212819,264.206662 C970.212819,264.206662 987.158626,273.235996 1021.05024,291.294665 L1022.08245,291.844661 C1022.08245,291.844661 1026.62931,306.087092 1035.72304,334.571954 L1035.995,335.427 L1036,335.439491 L1035.796,335.50897 C1033.64429,336.241809 1014.47092,342.771959 978.275878,355.09942 L975.736757,355.964204 C975.736757,355.964204 947.749949,350.939036 891.776332,340.888698 L880.229558,338.815418 C880.229558,338.815418 837.400049,343.716985 751.741031,353.520119 L749.132193,353.818684 C748.744527,353.79847 730.390271,352.84145 694.063348,350.947307 L688.368872,350.650388 L688.348942,350.654266 C687.697865,350.780946 671.095414,354.011304 638.541587,360.345338 L614.618911,365 L614.593446,364.99522 C613.820112,364.850063 595.433424,361.398829 559.433384,354.641518 C559.433384,354.641518 471.732529,356.571718 296.330821,360.432117 L296.285073,360.414032 C295.298951,360.024207 278.370533,353.332212 245.499818,340.338046 C245.499818,340.338046 221.357592,343.524285 173.07314,349.896764 C173.07314,349.896764 153.89466,341.753299 115.537698,325.46637 L-1.13686838e-13,318.521406 C0.0653094141,318.286254 3.31420908,306.588311 9.74767375,283.424069 C9.74767375,283.424069 35.7440349,265.977934 87.7367573,231.085665 L87.7487653,231.077172 C88.1410275,230.799738 98.1437133,223.72517 117.756823,209.853468 C117.756823,209.853468 145.635529,191.951058 201.392941,156.146237 C201.392941,156.146237 241.688967,146.813093 322.281021,128.146806 C322.281021,128.146806 322.282484,128.144885 322.285409,128.141044 L359.54821,75.8771737 L364.994979,72.0613578 C365.382281,71.5528121 365.772217,71.040808 366.164787,70.5253455 C366.164787,70.5253455 395.909177,49.9166561 455.397957,8.69927715 L457.209752,7.44395753 L536.760382,1.70530257e-13 L539.150361,0.229876561 L540.45076,0.115388942 L540.45076,0.115388942 L541.761397,0 Z" id="Combined-Shape" fill-opacity="0.5" fill="#EDF1FC" style="mix-blend-mode: color;"></path>
    </g>
</svg>