<?xml version="1.0" encoding="UTF-8"?>
<svg width="3991px" height="298px" viewBox="0 0 3991 298" version="1.1" xmlns="http://www.w3.org/2000/svg" xmlns:xlink="http://www.w3.org/1999/xlink">
    <!-- Generator: Sketch 60.1 (88133) - https://sketch.com -->
    <title>MoutainsLayerOne Copy 2</title>
    <desc>Created with Sketch.</desc>
    <g id="MoutainsLayerOne-Copy-2" stroke="none" stroke-width="1" fill="none" fill-rule="evenodd">
        <rect fill="#FFFFFF" opacity="0" x="0" y="0" width="3991" height="298"></rect>
        <rect id="Rectangle" fill="#394352" x="0" y="156" width="3991" height="142"></rect>
        <g id="Group-2" transform="translate(623.000000, 0.000000)">
            <g id="Group">
                <polygon id="Path-11" fill="#424C63" points="514.595774 0 799.74085 198.374334 1066 307 0 307 365.224901 110.203363"></polygon>
                <polygon id="Path-12" fill="#4C5E72" points="515 0 422.070578 172.924904 227.512758 307 0 307 365.511793 110.203363"></polygon>
                <polygon id="Path-13" fill="#4A576C" points="515 0 506.178499 183.335564 470.13289 307 228 307 386.468209 183.335564"></polygon>
                <polygon id="Path-14" fill="#475067" points="514.902326 0 657.195644 212.850153 809 307 470 307 506.073901 183.335564"></polygon>
            </g>
            <g id="Group" transform="translate(625.000000, 13.000000)">
                <polygon id="Path-11" fill="#424C63" points="541.146213 0 841.003276 103.387275 1121 160 0 160 384.068587 57.4349773"></polygon>
                <polygon id="Path-12" fill="#4C5E72" points="541 0 443.378996 90.1237286 238.998839 160 0 160 383.964815 57.4349773"></polygon>
                <polygon id="Path-13" fill="#4A576C" points="541 0 531.686708 95.5494797 493.631588 160 238 160 405.302674 95.5494797"></polygon>
                <polygon id="Path-14" fill="#475067" points="540.28652 0 690.135235 110.931676 850 160 493 160 530.989329 95.5494797"></polygon>
            </g>
            <g id="Group" transform="translate(1099.000000, 43.000000)">
                <polygon id="Path-11" fill="#424C63" points="402.118461 0 624.938206 84.0021608 833 130 0 130 285.396194 46.665919"></polygon>
                <polygon id="Path-12" fill="#4C5E72" points="402 0 329.460917 73.2255295 177.592483 130 0 130 285.312118 46.665919"></polygon>
                <polygon id="Path-13" fill="#4A576C" points="402 0 395.084189 77.6339523 366.825437 130 177 130 301.234659 77.6339523"></polygon>
                <polygon id="Path-14" fill="#475067" points="402.100638 0 513.332878 90.1319866 632 130 367 130 395.199362 77.6339523"></polygon>
            </g>
            <g id="Group" transform="translate(1342.000000, 39.000000)">
                <polygon id="Path-11" fill="#424C63" points="402.118461 0 624.938206 84.0021608 833 130 0 130 285.396194 46.665919"></polygon>
                <polygon id="Path-12" fill="#4C5E72" points="402 0 329.460917 73.2255295 177.592483 130 0 130 285.312118 46.665919"></polygon>
                <polygon id="Path-13" fill="#4A576C" points="402 0 395.084189 77.6339523 366.825437 130 177 130 301.234659 77.6339523"></polygon>
                <polygon id="Path-14" fill="#475067" points="402.100638 0 513.332878 90.1319866 632 130 367 130 395.199362 77.6339523"></polygon>
            </g>
            <g id="Group" transform="translate(1573.000000, 37.000000)">
                <polygon id="Path-11" fill="#424C63" points="332.604586 0 516.905671 133.111116 689 206 0 206 236.059997 73.9475332"></polygon>
                <polygon id="Path-12" fill="#4C5E72" points="333 0 272.911655 116.034301 147.110191 206 0 206 236.340635 73.9475332"></polygon>
                <polygon id="Path-13" fill="#4A576C" points="332 0 326.28293 123.019955 302.922361 206 146 206 248.700651 123.019955"></polygon>
                <polygon id="Path-14" fill="#475067" points="333.007697 0 424.931699 142.824533 523 206 304 206 327.304378 123.019955"></polygon>
            </g>
            <g id="Group" transform="translate(1829.000000, 31.000000)">
                <polygon id="Path-11" fill="#424C63" points="332.604586 0 516.905671 133.111116 689 206 0 206 236.059997 73.9475332"></polygon>
                <polygon id="Path-12" fill="#4C5E72" points="333 0 272.911655 116.034301 147.110191 206 0 206 236.340635 73.9475332"></polygon>
                <polygon id="Path-13" fill="#4A576C" points="332 0 326.28293 123.019955 302.922361 206 146 206 248.700651 123.019955"></polygon>
                <polygon id="Path-14" fill="#475067" points="333.007697 0 424.931699 142.824533 523 206 304 206 327.304378 123.019955"></polygon>
            </g>
            <g id="Group" transform="translate(642.000000, 77.000000)">
                <polygon id="Path-11" fill="#424C63" points="337.914673 0 525.158156 74.9557742 700 116 0 116 239.828734 41.6403585"></polygon>
                <polygon id="Path-12" fill="#4C5E72" points="338 0 277.009428 65.3397033 149.319053 116 0 116 239.889293 41.6403585"></polygon>
                <polygon id="Path-13" fill="#4A576C" points="338 0 332.190719 69.2733728 308.453367 116 149 116 253.357113 69.2733728"></polygon>
                <polygon id="Path-14" fill="#475067" points="337.537518 0 431.140497 80.425465 531 116 308 116 331.730029 69.2733728"></polygon>
            </g>
            <g id="Group" transform="translate(641.000000, 59.000000)">
                <polygon id="Path-11" fill="#424C63" points="337.914673 0 525.158156 74.3096038 700 115 0 115 239.828734 41.2813899"></polygon>
                <polygon id="Path-12" fill="#4C5E72" points="338 0 277.009428 64.7764299 149.319053 115 0 115 239.889293 41.2813899"></polygon>
                <polygon id="Path-13" fill="#4A576C" points="338 0 332.190719 68.6761885 308.453367 115 149 115 253.357113 68.6761885"></polygon>
                <polygon id="Path-14" fill="#475067" points="337.537518 0 431.140497 79.732142 531 115 308 115 331.730029 68.6761885"></polygon>
            </g>
            <g id="Group-Copy" transform="translate(561.000000, 0.000000)">
                <polygon id="Path-11" fill="#424C63" points="181.7725 0 520.5485 137.305512 799 200 0 200 96.679 146.349173"></polygon>
                <polygon id="Path-12" fill="#4C5E72" points="182 0 174.789507 142.777998 103.460852 200 0 200 91 142.777998"></polygon>
                <polygon id="Path-13" fill="#4A576C" points="181.328608 0 246 132.665369 230.935923 200 103 200 161.767508 123.512053"></polygon>
                <polygon id="Path-14" fill="#475067" points="182 0 386.371467 132.665369 478 200 231.106884 200 246.139973 132.665369"></polygon>
            </g>
            <g id="Group-Copy-2" transform="translate(28.000000, 39.000000)">
                <polygon id="Path-11" fill="#424C63" points="619.832058 0 963.290104 140.865162 1284 218 0 218 439.914421 78.2551565"></polygon>
                <polygon id="Path-12" fill="#4C5E72" points="620 0 508.123803 122.79358 273.898855 218 0 218 440.033614 78.2551565"></polygon>
                <polygon id="Path-13" fill="#4A576C" points="620 0 609.36502 130.186166 565.909338 218 274 218 465.045297 130.186166"></polygon>
                <polygon id="Path-14" fill="#475067" points="620.041738 0 791.297412 151.144408 974 218 566 218 609.416376 130.186166"></polygon>
            </g>
        </g>
        <g id="Group-2" transform="translate(2562.000000, 58.000000)">
            <g id="Group">
                <polygon id="Path-11" fill="#424C63" points="514.595774 0 799.74085 198.374334 1066 307 0 307 365.224901 110.203363"></polygon>
                <polygon id="Path-12" fill="#4C5E72" points="515 0 422.070578 172.924904 227.512758 307 0 307 365.511793 110.203363"></polygon>
                <polygon id="Path-13" fill="#4A576C" points="515 0 506.178499 183.335564 470.13289 307 228 307 386.468209 183.335564"></polygon>
                <polygon id="Path-14" fill="#475067" points="514.902326 0 657.195644 212.850153 809 307 470 307 506.073901 183.335564"></polygon>
            </g>
            <g id="Group" transform="translate(625.000000, 13.000000)">
                <polygon id="Path-11" fill="#424C63" points="541.146213 0 841.003276 103.387275 1121 160 0 160 384.068587 57.4349773"></polygon>
                <polygon id="Path-12" fill="#4C5E72" points="541 0 443.378996 90.1237286 238.998839 160 0 160 383.964815 57.4349773"></polygon>
                <polygon id="Path-13" fill="#4A576C" points="541 0 531.686708 95.5494797 493.631588 160 238 160 405.302674 95.5494797"></polygon>
                <polygon id="Path-14" fill="#475067" points="540.28652 0 690.135235 110.931676 850 160 493 160 530.989329 95.5494797"></polygon>
            </g>
            <g id="Group" transform="translate(1099.000000, 43.000000)">
                <polygon id="Path-11" fill="#424C63" points="402.118461 0 624.938206 84.0021608 833 130 0 130 285.396194 46.665919"></polygon>
                <polygon id="Path-12" fill="#4C5E72" points="402 0 329.460917 73.2255295 177.592483 130 0 130 285.312118 46.665919"></polygon>
                <polygon id="Path-13" fill="#4A576C" points="402 0 395.084189 77.6339523 366.825437 130 177 130 301.234659 77.6339523"></polygon>
            </g>
            <g id="Group" transform="translate(1342.000000, 39.000000)">
                <polygon id="Path-11" fill="#424C63" points="402.118461 0 624.938206 84.0021608 833 130 0 130 285.396194 46.665919"></polygon>
                <polygon id="Path-12" fill="#4C5E72" points="402 0 329.460917 73.2255295 177.592483 130 0 130 285.312118 46.665919"></polygon>
            </g>
            <g id="Group" transform="translate(642.000000, 77.000000)">
                <polygon id="Path-11" fill="#424C63" points="337.914673 0 525.158156 74.9557742 700 116 0 116 239.828734 41.6403585"></polygon>
                <polygon id="Path-12" fill="#4C5E72" points="338 0 277.009428 65.3397033 149.319053 116 0 116 239.889293 41.6403585"></polygon>
                <polygon id="Path-13" fill="#4A576C" points="338 0 332.190719 69.2733728 308.453367 116 149 116 253.357113 69.2733728"></polygon>
                <polygon id="Path-14" fill="#475067" points="337.537518 0 431.140497 80.425465 531 116 308 116 331.730029 69.2733728"></polygon>
            </g>
            <g id="Group" transform="translate(641.000000, 59.000000)">
                <polygon id="Path-11" fill="#424C63" points="337.914673 0 525.158156 74.3096038 700 115 0 115 239.828734 41.2813899"></polygon>
                <polygon id="Path-12" fill="#4C5E72" points="338 0 277.009428 64.7764299 149.319053 115 0 115 239.889293 41.2813899"></polygon>
                <polygon id="Path-13" fill="#4A576C" points="338 0 332.190719 68.6761885 308.453367 115 149 115 253.357113 68.6761885"></polygon>
                <polygon id="Path-14" fill="#475067" points="337.537518 0 431.140497 79.732142 531 115 308 115 331.730029 68.6761885"></polygon>
            </g>
            <g id="Group-Copy" transform="translate(561.000000, 0.000000)">
                <polygon id="Path-11" fill="#424C63" points="181.7725 0 520.5485 137.305512 799 200 0 200 96.679 146.349173"></polygon>
                <polygon id="Path-12" fill="#4C5E72" points="182 0 174.789507 142.777998 103.460852 200 0 200 91 142.777998"></polygon>
                <polygon id="Path-13" fill="#4A576C" points="181.328608 0 246 132.665369 230.935923 200 103 200 161.767508 123.512053"></polygon>
                <polygon id="Path-14" fill="#475067" points="182 0 386.371467 132.665369 478 200 231.106884 200 246.139973 132.665369"></polygon>
            </g>
            <g id="Group-Copy-2" transform="translate(28.000000, 39.000000)">
                <polygon id="Path-11" fill="#424C63" points="619.832058 0 963.290104 140.865162 1284 218 0 218 439.914421 78.2551565"></polygon>
                <polygon id="Path-12" fill="#4C5E72" points="620 0 508.123803 122.79358 273.898855 218 0 218 440.033614 78.2551565"></polygon>
                <polygon id="Path-13" fill="#4A576C" points="620 0 609.36502 130.186166 565.909338 218 274 218 465.045297 130.186166"></polygon>
                <polygon id="Path-14" fill="#475067" points="620.041738 0 791.297412 151.144408 974 218 566 218 609.416376 130.186166"></polygon>
            </g>
        </g>
        <g id="Group-2" transform="translate(-1109.000000, 58.000000)">
            <g id="Group" transform="translate(625.000000, 13.000000)">
                <polygon id="Path-11" fill="#424C63" points="541.146213 0 841.003276 103.387275 1121 160 0 160 384.068587 57.4349773"></polygon>
                <polygon id="Path-12" fill="#4C5E72" points="541 0 443.378996 90.1237286 238.998839 160 0 160 383.964815 57.4349773"></polygon>
                <polygon id="Path-13" fill="#4A576C" points="541 0 531.686708 95.5494797 493.631588 160 238 160 405.302674 95.5494797"></polygon>
                <polygon id="Path-14" fill="#475067" points="540.28652 0 690.135235 110.931676 850 160 493 160 530.989329 95.5494797"></polygon>
            </g>
            <g id="Group" transform="translate(1099.000000, 43.000000)">
                <polygon id="Path-11" fill="#424C63" points="402.118461 0 624.938206 84.0021608 833 130 0 130 285.396194 46.665919"></polygon>
                <polygon id="Path-12" fill="#4C5E72" points="402 0 329.460917 73.2255295 177.592483 130 0 130 285.312118 46.665919"></polygon>
                <polygon id="Path-13" fill="#4A576C" points="402 0 395.084189 77.6339523 366.825437 130 177 130 301.234659 77.6339523"></polygon>
                <polygon id="Path-14" fill="#475067" points="402.100638 0 513.332878 90.1319866 632 130 367 130 395.199362 77.6339523"></polygon>
            </g>
            <g id="Group" transform="translate(1342.000000, 39.000000)">
                <polygon id="Path-11" fill="#424C63" points="402.118461 0 624.938206 84.0021608 833 130 0 130 285.396194 46.665919"></polygon>
                <polygon id="Path-12" fill="#4C5E72" points="402 0 329.460917 73.2255295 177.592483 130 0 130 285.312118 46.665919"></polygon>
                <polygon id="Path-13" fill="#4A576C" points="402 0 395.084189 77.6339523 366.825437 130 177 130 301.234659 77.6339523"></polygon>
                <polygon id="Path-14" fill="#475067" points="402.100638 0 513.332878 90.1319866 632 130 367 130 395.199362 77.6339523"></polygon>
            </g>
            <g id="Group" transform="translate(1573.000000, 37.000000)">
                <polygon id="Path-11" fill="#424C63" points="332.604586 0 516.905671 133.111116 689 206 0 206 236.059997 73.9475332"></polygon>
                <polygon id="Path-12" fill="#4C5E72" points="333 0 272.911655 116.034301 147.110191 206 0 206 236.340635 73.9475332"></polygon>
                <polygon id="Path-13" fill="#4A576C" points="332 0 326.28293 123.019955 302.922361 206 146 206 248.700651 123.019955"></polygon>
                <polygon id="Path-14" fill="#475067" points="333.007697 0 424.931699 142.824533 523 206 304 206 327.304378 123.019955"></polygon>
            </g>
            <g id="Group" transform="translate(1829.000000, 31.000000)">
                <polygon id="Path-11" fill="#424C63" points="332.604586 0 516.905671 133.111116 689 206 0 206 236.059997 73.9475332"></polygon>
                <polygon id="Path-12" fill="#4C5E72" points="333 0 272.911655 116.034301 147.110191 206 0 206 236.340635 73.9475332"></polygon>
                <polygon id="Path-13" fill="#4A576C" points="332 0 326.28293 123.019955 302.922361 206 146 206 248.700651 123.019955"></polygon>
                <polygon id="Path-14" fill="#475067" points="333.007697 0 424.931699 142.824533 523 206 304 206 327.304378 123.019955"></polygon>
            </g>
            <g id="Group" transform="translate(642.000000, 77.000000)">
                <polygon id="Path-11" fill="#424C63" points="337.914673 0 525.158156 74.9557742 700 116 0 116 239.828734 41.6403585"></polygon>
                <polygon id="Path-14" fill="#475067" points="337.537518 0 431.140497 80.425465 531 116 308 116 331.730029 69.2733728"></polygon>
            </g>
            <g id="Group" transform="translate(641.000000, 59.000000)">
                <polygon id="Path-11" fill="#424C63" points="337.914673 0 525.158156 74.3096038 700 115 0 115 239.828734 41.2813899"></polygon>
                <polygon id="Path-14" fill="#475067" points="337.537518 0 431.140497 79.732142 531 115 308 115 331.730029 68.6761885"></polygon>
            </g>
            <g id="Group-Copy" transform="translate(561.000000, 0.000000)" fill="#424C63">
                <polygon id="Path-11" points="181.7725 0 520.5485 137.305512 799 200 0 200 96.679 146.349173"></polygon>
            </g>
            <g id="Group-Copy-2" transform="translate(28.000000, 39.000000)" fill="#424C63">
                <polygon id="Path-11" points="619.832058 0 963.290104 140.865162 1284 218 0 218 439.914421 78.2551565"></polygon>
            </g>
        </g>
    </g>
</svg>