<?xml version="1.0" encoding="UTF-8"?>
<svg width="3991px" height="298px" viewBox="0 0 3991 298" version="1.1" xmlns="http://www.w3.org/2000/svg" xmlns:xlink="http://www.w3.org/1999/xlink">
    <!-- Generator: Sketch 60.1 (88133) - https://sketch.com -->
    <title>MoutainsLayerOne Copy 3</title>
    <desc>Created with Sketch.</desc>
    <g id="MoutainsLayerOne-Copy-3" stroke="none" stroke-width="1" fill="none" fill-rule="evenodd">
        <rect fill="#FFFFFF" opacity="0" x="0" y="0" width="3991" height="298"></rect>
        <g id="Mountain-3" transform="translate(2151.000000, 0.000000)">
            <polygon id="Path-11" fill="#313747" points="514.595774 0 799.74085 198.374334 1066 307 0 307 365.224901 110.203363"></polygon>
            <polygon id="Path-12" fill="#3F4A59" points="515 0 422.070578 172.924904 227.512758 307 0 307 365.511793 110.203363"></polygon>
            <polygon id="Path-13" fill="#394352" points="515 0 506.178499 183.335564 470.13289 307 228 307 386.468209 183.335564"></polygon>
            <polygon id="Path-14" fill="#373D4E" points="514.902326 0 657.195644 212.850153 809 307 470 307 506.073901 183.335564"></polygon>
        </g>
        <g id="Mountain-3" transform="translate(2215.000000, 60.000000)">
            <polygon id="Path-11" fill="#313747" points="320.536205 0 498.150023 82.7098198 664 128 0 128 227.494685 45.9479818"></polygon>
            <polygon id="Path-12" fill="#3F4A59" points="321 0 263.077001 72.0989829 141.808923 128 0 128 227.823855 45.9479818"></polygon>
            <polygon id="Path-13" fill="#394352" points="321 0 315.498088 76.4395838 293.016681 128 142 128 240.835573 76.4395838"></polygon>
            <polygon id="Path-14" fill="#373D4E" points="320.948055 0 409.514103 88.7453406 504 128 293 128 315.453077 76.4395838"></polygon>
        </g>
        <g id="Mountain-3" transform="translate(1235.000000, 74.000000)">
            <polygon id="Path-11" fill="#313747" points="442.185487 0 687.206959 136.341969 916 211 0 211 313.833029 75.7423763"></polygon>
            <polygon id="Path-12" fill="#3F4A59" points="443 0 363.062653 118.850667 195.705149 211 0 211 314.411115 75.7423763"></polygon>
            <polygon id="Path-13" fill="#394352" points="443 0 435.407976 126.005876 404.386146 211 196 211 332.382048 126.005876"></polygon>
            <polygon id="Path-14" fill="#373D4E" points="442.544475 0 564.690066 146.291147 695 211 404 211 434.966092 126.005876"></polygon>
        </g>
        <g id="Mountain-3" transform="translate(1235.000000, 74.000000)">
            <polygon id="Path-11" fill="#313747" points="442.185487 0 687.206959 136.341969 916 211 0 211 313.833029 75.7423763"></polygon>
            <polygon id="Path-12" fill="#3F4A59" points="443 0 363.062653 118.850667 195.705149 211 0 211 314.411115 75.7423763"></polygon>
            <polygon id="Path-13" fill="#394352" points="443 0 435.407976 126.005876 404.386146 211 196 211 332.382048 126.005876"></polygon>
            <polygon id="Path-14" fill="#373D4E" points="442.544475 0 564.690066 146.291147 695 211 404 211 434.966092 126.005876"></polygon>
        </g>
        <g id="Mountain-3" transform="translate(801.000000, 101.000000)">
            <polygon id="Path-11" fill="#313747" points="442.185487 0 687.206959 68.4940696 916 106 0 106 313.833029 38.0506724"></polygon>
            <polygon id="Path-12" fill="#3F4A59" points="443 0 363.062653 59.7069702 195.705149 106 0 106 314.411115 38.0506724"></polygon>
            <polygon id="Path-13" fill="#394352" points="443 0 435.407976 63.3015303 404.386146 106 196 106 332.382048 63.3015303"></polygon>
            <polygon id="Path-14" fill="#373D4E" points="442.544475 0 564.690066 73.4922352 695 106 404 106 434.966092 63.3015303"></polygon>
        </g>
        <g id="Mountain-3" transform="translate(1013.000000, 103.000000)">
            <polygon id="Path-11" fill="#313747" points="442.185487 0 687.206959 57.5091716 916 89 0 89 313.833029 31.9482061"></polygon>
            <polygon id="Path-12" fill="#3F4A59" points="443 0 363.062653 50.131324 195.705149 89 0 89 314.411115 31.9482061"></polygon>
            <polygon id="Path-13" fill="#394352" points="443 0 435.407976 53.1493981 404.386146 89 196 89 332.382048 53.1493981"></polygon>
            <polygon id="Path-14" fill="#373D4E" points="442.544475 0 564.690066 61.7057447 695 89 404 89 434.966092 53.1493981"></polygon>
        </g>
        <g id="Mountain-3" transform="translate(775.000000, 77.000000)">
            <polygon id="Path-11" fill="#313747" points="185.64 0 531.624 90.6216377 816 132 0 132 98.736 96.5904539"></polygon>
            <polygon id="Path-12" fill="#3F4A59" points="186 0 178.631035 94.2334785 158.637596 104.591788 105.734717 132 0 132 93 94.2334785"></polygon>
            <polygon id="Path-13" fill="#394352" points="185.519618 0 252 87.5591436 236.51455 132 105 132 165.411354 81.517955"></polygon>
            <polygon id="Path-14" fill="#373D4E" points="186 0 394.514132 87.5591436 488 132 236.102294 132 251.440108 87.5591436"></polygon>
        </g>
        <g id="Mountain-3" transform="translate(2278.500000, 112.000000) scale(-1, 1) translate(-2278.500000, -112.000000) translate(2002.000000, 46.000000)">
            <polygon id="Path-11" fill="#313747" points="125.8075 0 360.2795 90.6216377 553 132 0 132 66.913 96.5904539"></polygon>
            <polygon id="Path-12" fill="#3F4A59" points="127 0 121.968502 94.2334785 108.317068 104.591788 72.1952099 132 0 132 63.5 94.2334785"></polygon>
            <polygon id="Path-13" fill="#394352" points="124.77525 0 170 87.5591436 159.465681 132 70 132 111.096159 81.517955"></polygon>
            <polygon id="Path-14" fill="#373D4E" points="126 0 267.54105 87.5591436 331 132 160.009835 132 170.421265 87.5591436"></polygon>
        </g>
        <g id="Mountain-3" transform="translate(2684.500000, 138.000000) scale(-1, 1) translate(-2684.500000, -138.000000) translate(2408.000000, 72.000000)">
            <polygon id="Path-11" fill="#313747" points="125.8075 0 360.2795 90.6216377 553 132 0 132 66.913 96.5904539"></polygon>
            <polygon id="Path-12" fill="#3F4A59" points="127 0 121.968502 94.2334785 108.317068 104.591788 72.1952099 132 0 132 63.5 94.2334785"></polygon>
            <polygon id="Path-13" fill="#394352" points="124.77525 0 170 87.5591436 159.465681 132 70 132 111.096159 81.517955"></polygon>
            <polygon id="Path-14" fill="#373D4E" points="126 0 267.54105 87.5591436 331 132 160.009835 132 170.421265 87.5591436"></polygon>
        </g>
        <g id="Mountain-3" transform="translate(1440.000000, 35.000000)">
            <polygon id="Path-11" fill="#313747" points="635.560976 0 1161 137.639103 1677 226 0 226 574.561124 74.2046415"></polygon>
            <polygon id="Path-12" fill="#3F4A59" points="636 4.01456646e-13 557.287129 128.88625 358.163649 226 0 226 360.50495 128.88625"></polygon>
            <polygon id="Path-13" fill="#394352" points="635.696517 -4.01456646e-13 675 149.970561 635.696517 226 359 226 557.089552 128.88625"></polygon>
            <polygon id="Path-14" fill="#373D4E" points="636 -4.01456646e-13 919.448276 153.341061 1047 226 636 226 675.367816 153.341061"></polygon>
        </g>
        <g id="Mountain-3" transform="translate(-992.000000, 138.000000)">
            <polygon id="Path-11" fill="#313747" points="1650.86679 0 3015.69231 98.6616579 4356 162 0 162 1492.41995 53.1909377"></polygon>
            <polygon id="Path-12" fill="#3F4A59" points="1653 2.87769808e-13 1448.42079 92.387489 930.887598 162 0 162 936.972772 92.387489"></polygon>
            <polygon id="Path-13" fill="#394352" points="1651.00995 -2.87769808e-13 1753 107.501022 1651.00995 162 933 162 1447.02985 92.387489"></polygon>
            <polygon id="Path-14" fill="#373D4E" points="1653 -2.87769808e-13 2388.17241 109.917044 2719 162 1653 162 1755.10728 109.917044"></polygon>
        </g>
        <g id="Mountain-3" transform="translate(3324.000000, 59.000000)">
            <polygon id="Path-11" fill="#313747" points="514.595774 0 799.74085 198.374334 1066 307 0 307 365.224901 110.203363"></polygon>
            <polygon id="Path-12" fill="#3F4A59" points="515 0 422.070578 172.924904 227.512758 307 0 307 365.511793 110.203363"></polygon>
            <polygon id="Path-13" fill="#394352" points="515 0 506.178499 183.335564 470.13289 307 228 307 386.468209 183.335564"></polygon>
            <polygon id="Path-14" fill="#373D4E" points="514.902326 0 657.195644 212.850153 809 307 470 307 506.073901 183.335564"></polygon>
        </g>
        <g id="Mountain-3" transform="translate(2823.000000, 67.000000)">
            <polygon id="Path-11" fill="#313747" points="486.619137 0 888.923077 105.360906 1284 173 0 173 439.914421 56.802668"></polygon>
            <polygon id="Path-12" fill="#3F4A59" points="487 3.07309733e-13 426.727723 98.6607135 274.254241 173 0 173 276.04703 98.6607135"></polygon>
            <polygon id="Path-13" fill="#394352" points="486.900498 -3.07309733e-13 517 114.800474 486.900498 173 275 173 426.701493 98.6607135"></polygon>
            <polygon id="Path-14" fill="#373D4E" points="487 -3.07309733e-13 704.241379 117.380547 802 173 487 173 517.172414 117.380547"></polygon>
        </g>
        <g id="Mountain-3" transform="translate(3172.000000, 67.000000)">
            <polygon id="Path-11" fill="#313747" points="442.185487 0 687.206959 136.341969 916 211 0 211 313.833029 75.7423763"></polygon>
            <polygon id="Path-12" fill="#3F4A59" points="443 0 363.062653 118.850667 195.705149 211 0 211 314.411115 75.7423763"></polygon>
            <polygon id="Path-13" fill="#394352" points="443 0 435.407976 126.005876 404.386146 211 196 211 332.382048 126.005876"></polygon>
            <polygon id="Path-14" fill="#373D4E" points="442.544475 0 564.690066 146.291147 695 211 404 211 434.966092 126.005876"></polygon>
        </g>
        <g id="Mountain-3" transform="translate(3363.500000, 201.500000) scale(-1, 1) translate(-3363.500000, -201.500000) translate(3027.000000, 96.000000)">
            <polygon id="Path-11" fill="#313747" points="153.1075 0 438.4595 144.857315 673 211 0 211 81.433 154.398377"></polygon>
            <polygon id="Path-12" fill="#3F4A59" points="155 0 148.859196 150.630788 132.197997 167.188389 88.1122641 211 0 211 77.5 150.630788"></polygon>
            <polygon id="Path-13" fill="#394352" points="151.825805 0 207 139.961964 194.14813 211 85 211 135.137314 130.305216"></polygon>
            <polygon id="Path-14" fill="#373D4E" points="154 0 325.920592 139.961964 403 211 195.309507 211 207.955585 139.961964"></polygon>
        </g>
        <g id="Mountain-3" transform="translate(2840.000000, 176.000000)">
            <polygon id="Path-11" fill="#313747" points="320.536205 0 498.150023 82.7098198 664 128 0 128 227.494685 45.9479818"></polygon>
            <polygon id="Path-12" fill="#3F4A59" points="321 0 263.077001 72.0989829 141.808923 128 0 128 227.823855 45.9479818"></polygon>
            <polygon id="Path-13" fill="#394352" points="321 0 315.498088 76.4395838 293.016681 128 142 128 240.835573 76.4395838"></polygon>
            <polygon id="Path-14" fill="#373D4E" points="320.948055 0 409.514103 88.7453406 504 128 293 128 315.453077 76.4395838"></polygon>
        </g>
        <g id="Mountain-3" transform="translate(2866.000000, 217.500000) scale(-1, 1) translate(-2866.000000, -217.500000) translate(2515.000000, 131.000000)">
            <polygon id="Path-11" fill="#313747" points="159.705 0 457.353 118.769268 702 173 0 173 84.942 126.592034"></polygon>
            <polygon id="Path-12" fill="#3F4A59" points="161 0 154.621487 123.502968 137.315338 137.078631 91.5230614 173 0 173 80.5 123.502968"></polygon>
            <polygon id="Path-13" fill="#394352" points="158.016815 0 215 114.755544 201.726757 173 89 173 140.781161 106.837926"></polygon>
            <polygon id="Path-14" fill="#373D4E" points="159 0 339.205922 114.755544 420 173 202.300327 173 215.555855 114.755544"></polygon>
        </g>
        <g id="Mountain-3" transform="translate(205.000000, 127.000000)">
            <polygon id="Path-11" fill="#313747" points="442.185487 0 687.206959 68.4940696 916 106 0 106 313.833029 38.0506724"></polygon>
            <polygon id="Path-12" fill="#3F4A59" points="443 0 363.062653 59.7069702 195.705149 106 0 106 314.411115 38.0506724"></polygon>
            <polygon id="Path-13" fill="#394352" points="443 0 435.407976 63.3015303 404.386146 106 196 106 332.382048 63.3015303"></polygon>
            <polygon id="Path-14" fill="#373D4E" points="442.544475 0 564.690066 73.4922352 695 106 404 106 434.966092 63.3015303"></polygon>
        </g>
        <g id="Mountain-3" transform="translate(417.000000, 129.000000)">
            <polygon id="Path-11" fill="#313747" points="442.185487 0 687.206959 57.5091716 916 89 0 89 313.833029 31.9482061"></polygon>
            <polygon id="Path-12" fill="#3F4A59" points="443 0 363.062653 50.131324 195.705149 89 0 89 314.411115 31.9482061"></polygon>
            <polygon id="Path-13" fill="#394352" points="443 0 435.407976 53.1493981 404.386146 89 196 89 332.382048 53.1493981"></polygon>
            <polygon id="Path-14" fill="#373D4E" points="442.544475 0 564.690066 61.7057447 695 89 404 89 434.966092 53.1493981"></polygon>
        </g>
        <g id="Mountain-3" transform="translate(179.000000, 103.000000)">
            <polygon id="Path-11" fill="#313747" points="185.64 0 531.624 90.6216377 816 132 0 132 98.736 96.5904539"></polygon>
            <polygon id="Path-12" fill="#3F4A59" points="186 0 178.631035 94.2334785 158.637596 104.591788 105.734717 132 0 132 93 94.2334785"></polygon>
            <polygon id="Path-13" fill="#394352" points="185.519618 0 252 87.5591436 236.51455 132 105 132 165.411354 81.517955"></polygon>
            <polygon id="Path-14" fill="#373D4E" points="186 0 394.514132 87.5591436 488 132 236.102294 132 251.440108 87.5591436"></polygon>
        </g>
        <g id="Mountain-3" transform="translate(-115.000000, 148.000000)">
            <polygon id="Path-11" fill="#313747" points="442.185487 0 687.206959 68.4940696 916 106 0 106 313.833029 38.0506724"></polygon>
            <polygon id="Path-12" fill="#3F4A59" points="443 0 363.062653 59.7069702 195.705149 106 0 106 314.411115 38.0506724"></polygon>
            <polygon id="Path-13" fill="#394352" points="443 0 435.407976 63.3015303 404.386146 106 196 106 332.382048 63.3015303"></polygon>
            <polygon id="Path-14" fill="#373D4E" points="442.544475 0 564.690066 73.4922352 695 106 404 106 434.966092 63.3015303"></polygon>
        </g>
        <g id="Mountain-3" transform="translate(97.000000, 150.000000)">
            <polygon id="Path-11" fill="#313747" points="442.185487 0 687.206959 57.5091716 916 89 0 89 313.833029 31.9482061"></polygon>
            <polygon id="Path-12" fill="#3F4A59" points="443 0 363.062653 50.131324 195.705149 89 0 89 314.411115 31.9482061"></polygon>
            <polygon id="Path-13" fill="#394352" points="443 0 435.407976 53.1493981 404.386146 89 196 89 332.382048 53.1493981"></polygon>
            <polygon id="Path-14" fill="#373D4E" points="442.544475 0 564.690066 61.7057447 695 89 404 89 434.966092 53.1493981"></polygon>
        </g>
        <g id="Mountain-3" transform="translate(-141.000000, 124.000000)">
            <polygon id="Path-11" fill="#313747" points="185.64 0 531.624 90.6216377 816 132 0 132 98.736 96.5904539"></polygon>
            <polygon id="Path-12" fill="#3F4A59" points="186 0 178.631035 94.2334785 158.637596 104.591788 105.734717 132 0 132 93 94.2334785"></polygon>
            <polygon id="Path-13" fill="#394352" points="185.519618 0 252 87.5591436 236.51455 132 105 132 165.411354 81.517955"></polygon>
            <polygon id="Path-14" fill="#373D4E" points="186 0 394.514132 87.5591436 488 132 236.102294 132 251.440108 87.5591436"></polygon>
        </g>
    </g>
</svg>