<?xml version="1.0" encoding="UTF-8"?>
<svg width="3991px" height="298px" viewBox="0 0 3991 298" version="1.1" xmlns="http://www.w3.org/2000/svg" xmlns:xlink="http://www.w3.org/1999/xlink">
    <!-- Generator: Sketch 60.1 (88133) - https://sketch.com -->
    <title>MoutainsLayerOne Copy</title>
    <desc>Created with Sketch.</desc>
    <defs>
        <linearGradient x1="50%" y1="0.778610642%" x2="50%" y2="81.3462321%" id="linearGradient-1">
            <stop stop-color="#2B3040" stop-opacity="0" offset="0%"></stop>
            <stop stop-color="#222838" offset="100%"></stop>
        </linearGradient>
    </defs>
    <g id="MoutainsLayerOne-Copy" stroke="none" stroke-width="1" fill="none" fill-rule="evenodd">
        <rect fill="#FFFFFF" opacity="0" x="0" y="0" width="3991" height="298"></rect>
        <g id="Lowest-Mountains" transform="translate(-775.000000, 0.000000)">
            <g id="Mountain-3" transform="translate(2499.000000, 32.000000)">
                <polygon id="Path-11" fill="#222838" points="958.712202 0 1489.94871 170.589003 1986 264 0 264 680.42838 94.7677125"></polygon>
                <polygon id="Path-11" fill="#222838" points="958.712202 0 1489.94871 170.589003 1986 264 0 264 680.42838 94.7677125"></polygon>
                <polygon id="Path-12" fill="#2B3040" points="959 0 785.952785 148.704152 423.65968 264 0 264 680.632639 94.7677125"></polygon>
                <polygon id="Path-13" fill="#272C3B" points="960 0 943.555738 157.656642 876.362705 264 425 264 720.402411 157.656642"></polygon>
                <polygon id="Path-14" fill="#252A39" points="960.579256 0 1225.43791 183.037265 1508 264 877 264 944.146406 157.656642"></polygon>
            </g>
            <g id="Mountain-3" transform="translate(1056.000000, 61.000000)">
                <polygon id="Path-11" fill="#222838" points="1373.86452 0 2135.14302 151.85006 2846 235 0 235 975.07511 84.3576229"></polygon>
                <polygon id="Path-12" fill="#2B3040" points="1375 0 1126.88747 132.369226 607.436976 235 0 235 975.881 84.3576229"></polygon>
                <polygon id="Path-13" fill="#272C3B" points="1375 0 1351.48624 140.338298 1255.40648 235 610 235 1032.39784 140.338298"></polygon>
                <polygon id="Path-14" fill="#252A39" points="1373.87199 0 1753.74058 162.930899 2159 235 1254 235 1350.30348 140.338298"></polygon>
            </g>
            <g id="Mountain-3" transform="translate(2722.000000, 6.000000)">
                <polygon id="Path-11" fill="#222838" points="572.524004 0 889.767962 182.866242 1186 283 0 283 406.338398 101.588116"></polygon>
                <polygon id="Path-12" fill="#2B3040" points="573 0 469.60474 159.406345 253.135554 283 0 283 406.676228 101.588116"></polygon>
                <polygon id="Path-13" fill="#272C3B" points="573 0 563.194917 169.003142 523.130286 283 254 283 430.137138 169.003142"></polygon>
                <polygon id="Path-14" fill="#252A39" points="572.935625 0 731.179226 196.210402 900 283 523 283 563.117583 169.003142"></polygon>
            </g>
            <g id="Mountain-3" transform="translate(2762.000000, 6.000000)">
                <polygon id="Path-11" fill="#222838" points="572.524004 0 889.767962 182.866242 1186 283 0 283 406.338398 101.588116"></polygon>
                <polygon id="Path-12" fill="#2B3040" points="573 0 469.60474 159.406345 253.135554 283 0 283 406.676228 101.588116"></polygon>
                <polygon id="Path-13" fill="#272C3B" points="573 0 563.194917 169.003142 523.130286 283 254 283 430.137138 169.003142"></polygon>
                <polygon id="Path-14" fill="#252A39" points="572.935625 0 731.179226 196.210402 900 283 523 283 563.117583 169.003142"></polygon>
            </g>
            <g id="Mountain-3" transform="translate(2762.000000, 6.000000)">
                <polygon id="Path-11" fill="#222838" points="572.524004 0 889.767962 182.866242 1186 283 0 283 406.338398 101.588116"></polygon>
                <polygon id="Path-12" fill="#2B3040" points="573 0 469.60474 159.406345 253.135554 283 0 283 406.676228 101.588116"></polygon>
                <polygon id="Path-13" fill="#272C3B" points="573 0 563.194917 169.003142 523.130286 283 254 283 430.137138 169.003142"></polygon>
                <polygon id="Path-14" fill="#252A39" points="572.935625 0 731.179226 196.210402 900 283 523 283 563.117583 169.003142"></polygon>
            </g>
            <g id="Mountain-3" transform="translate(2762.000000, 6.000000)">
                <polygon id="Path-11" fill="#222838" points="572.524004 0 889.767962 182.866242 1186 283 0 283 406.338398 101.588116"></polygon>
                <polygon id="Path-12" fill="#2B3040" points="573 0 469.60474 159.406345 253.135554 283 0 283 406.676228 101.588116"></polygon>
                <polygon id="Path-13" fill="#272C3B" points="573 0 563.194917 169.003142 523.130286 283 254 283 430.137138 169.003142"></polygon>
                <polygon id="Path-14" fill="#252A39" points="572.935625 0 731.179226 196.210402 900 283 523 283 563.117583 169.003142"></polygon>
            </g>
            <g id="Mountain-3" transform="translate(2509.000000, 38.000000)">
                <polygon id="Path-11" fill="#222838" points="573.489474 0 891.268414 164.773469 1188 255 0 255 407.023623 91.536995"></polygon>
                <polygon id="Path-12" fill="#2B3040" points="574 0 470.424295 143.634692 253.577327 255 0 255 407.385959 91.536995"></polygon>
                <polygon id="Path-13" fill="#272C3B" points="574 0 564.194917 152.281983 524.130286 255 255 255 431.137138 152.281983"></polygon>
                <polygon id="Path-14" fill="#252A39" points="574.06808 0 732.731426 176.797358 902 255 524 255 564.223996 152.281983"></polygon>
            </g>
            <g id="Mountain-3" transform="translate(3058.000000, 41.000000)">
                <polygon id="Path-11" fill="#222838" points="948.092027 0 1473.44374 158.957935 1964 246 0 246 672.890905 88.3062776"></polygon>
                <polygon id="Path-12" fill="#2B3040" points="949 0 777.75724 138.565233 419.241957 246 0 246 673.535323 88.3062776"></polygon>
                <polygon id="Path-13" fill="#272C3B" points="949 0 932.801634 146.907325 866.613356 246 422 246 712.985179 146.907325"></polygon>
                <polygon id="Path-14" fill="#252A39" points="948.784525 0 1211.12471 170.557452 1491 246 866 246 932.50793 146.907325"></polygon>
            </g>
            <g id="Mountain-3" transform="translate(3834.000000, 44.000000)">
                <polygon id="Path-11" fill="#222838" points="573.489474 0 891.268414 164.773469 1188 255 0 255 407.023623 91.536995"></polygon>
                <polygon id="Path-12" fill="#2B3040" points="574 0 470.424295 143.634692 253.577327 255 0 255 407.385959 91.536995"></polygon>
                <polygon id="Path-13" fill="#272C3B" points="574 0 564.194917 152.281983 524.130286 255 255 255 431.137138 152.281983"></polygon>
                <polygon id="Path-14" fill="#252A39" points="574.06808 0 732.731426 176.797358 902 255 524 255 564.223996 152.281983"></polygon>
            </g>
            <g id="Mountain-3" transform="translate(3978.000000, 49.000000)">
                <polygon id="Path-11" fill="#222838" points="573.489474 0 891.268414 164.773469 1188 255 0 255 407.023623 91.536995"></polygon>
                <polygon id="Path-12" fill="#2B3040" points="574 0 470.424295 143.634692 253.577327 255 0 255 407.385959 91.536995"></polygon>
                <polygon id="Path-13" fill="#272C3B" points="574 0 564.194917 152.281983 524.130286 255 255 255 431.137138 152.281983"></polygon>
                <polygon id="Path-14" fill="#252A39" points="574.06808 0 732.731426 176.797358 902 255 524 255 564.223996 152.281983"></polygon>
            </g>
            <g id="Mountain-3" transform="translate(2100.000000, 79.000000)">
                <polygon id="Path-11" fill="#222838" points="415.748593 -2.27373675e-13 759.461538 133.984968 1097 220 0 220 375.845888 72.2346068"></polygon>
                <polygon id="Path-12" fill="#2B3040" points="416 1.63424829e-13 364.514851 125.464491 234.270563 220 0 220 235.80198 125.464491"></polygon>
                <polygon id="Path-13" fill="#272C3B" points="416.378109 -6.1817218e-13 442 145.989042 416.378109 220 236 220 365.134328 125.464491"></polygon>
                <polygon id="Path-14" fill="#252A39" points="416 -6.1817218e-13 602.206897 149.270059 686 220 416 220 441.862069 149.270059"></polygon>
            </g>
            <g id="Mountain-3" transform="translate(2529.000000, 84.000000)">
                <polygon id="Path-11" fill="#222838" points="350.46579 0 544.664031 132.464946 726 205 0 205 248.736659 73.5885646"></polygon>
                <polygon id="Path-12" fill="#2B3040" points="351 0 287.663637 115.471027 155.062094 205 0 205 249.115804 73.5885646"></polygon>
                <polygon id="Path-13" fill="#272C3B" points="351 0 344.97556 122.422771 320.359047 205 155 205 263.222192 122.422771"></polygon>
                <polygon id="Path-14" fill="#252A39" points="350.59716 0 447.558093 142.13121 551 205 320 205 344.581331 122.422771"></polygon>
            </g>
            <g id="Mountain-3" transform="translate(1192.000000, 0.000000)">
                <polygon id="Path-11" fill="#222838" points="630.934969 0 980.5453 188.681777 1307 292 0 292 447.794508 104.818834"></polygon>
                <polygon id="Path-12" fill="#2B3040" points="631 0 517.138902 164.475805 278.758351 292 0 292 447.840662 104.818834"></polygon>
                <polygon id="Path-13" fill="#272C3B" points="632 0 621.180598 174.3778 576.97135 292 280 292 474.358222 174.3778"></polygon>
                <polygon id="Path-14" fill="#252A39" points="631.968924 0 806.162808 202.450308 992 292 577 292 621.161265 174.3778"></polygon>
            </g>
            <g id="Mountain-3" transform="translate(1351.000000, 49.000000)">
                <polygon id="Path-11" fill="#222838" points="619.832058 0 963.290104 170.589003 1284 264 0 264 439.914421 94.7677125"></polygon>
                <polygon id="Path-12" fill="#2B3040" points="620 0 508.123803 148.704152 273.898855 264 0 264 440.033614 94.7677125"></polygon>
                <polygon id="Path-13" fill="#272C3B" points="621 0 610.36502 157.656642 566.909338 264 275 264 466.045297 157.656642"></polygon>
                <polygon id="Path-14" fill="#252A39" points="621.041738 0 792.297412 183.037265 975 264 567 264 610.416376 157.656642"></polygon>
            </g>
            <g id="Mountain-3" transform="translate(0.000000, 6.000000)">
                <polygon id="Path-11" fill="#222838" points="1002.64111 0 1558.21927 188.681777 2077 292 0 292 711.606115 104.818834"></polygon>
                <polygon id="Path-12" fill="#2B3040" points="1003 0 822.013184 164.475805 443.097663 292 0 292 711.860831 104.818834"></polygon>
                <polygon id="Path-13" fill="#272C3B" points="1004 0 986.818052 174.3778 916.610752 292 445 292 753.654108 174.3778"></polygon>
                <polygon id="Path-14" fill="#252A39" points="1004.288 0 1280.8995 202.450308 1576 292 917 292 987.125961 174.3778"></polygon>
            </g>
            <g id="Mountain-3" transform="translate(253.000000, 55.000000)">
                <polygon id="Path-11" fill="#222838" points="984.779906 0 1530.46091 170.589003 2040 264 0 264 698.929454 94.7677125"></polygon>
                <polygon id="Path-12" fill="#2B3040" points="985 0 807.261203 148.704152 435.145761 264 0 264 699.085662 94.7677125"></polygon>
                <polygon id="Path-13" fill="#272C3B" points="987 0 970.094684 157.656642 901.017734 264 437 264 740.684721 157.656642"></polygon>
                <polygon id="Path-14" fill="#252A39" points="986.830995 0 1258.8253 183.037265 1549 264 901 264 969.955421 157.656642"></polygon>
            </g>
        </g>
        <rect id="Rectangle" fill="url(#linearGradient-1)" x="0" y="156" width="3991" height="142"></rect>
    </g>
</svg>