<?xml version="1.0" encoding="UTF-8"?>
<svg width="908px" height="908px" viewBox="0 0 908 908" version="1.1" xmlns="http://www.w3.org/2000/svg" xmlns:xlink="http://www.w3.org/1999/xlink">
    <!-- Generator: Sketch 60.1 (88133) - https://sketch.com -->
    <title>aws</title>
    <desc>Created with Sketch.</desc>
    <g id="aws" stroke="none" stroke-width="1" fill="none" fill-rule="evenodd">
        <g transform="translate(1.000000, 182.000000)" fill="#FFFFFF">
            <path d="M255.737857,197.172425 C255.737857,208.32744 256.943804,217.372046 259.054212,224.004758 C261.466108,230.63747 264.480976,237.873155 268.701793,245.711814 C270.209227,248.123709 270.812201,250.535604 270.812201,252.646012 C270.812201,255.660881 269.00328,258.67575 265.08395,261.690619 L246.090276,274.353068 C243.376894,276.16199 240.663512,277.06645 238.251617,277.06645 C235.236748,277.06645 232.221879,275.559016 229.207011,272.845634 C224.986194,268.323331 221.368351,263.49954 218.353483,258.67575 C215.338614,253.550473 212.323745,247.822222 209.007389,240.888024 C185.491412,268.624818 155.945697,282.493214 120.370244,282.493214 C95.0453452,282.493214 74.8457237,275.257529 60.0728662,260.786158 C45.3000086,246.314788 37.7628364,227.019627 37.7628364,202.900676 C37.7628364,177.27429 46.8074431,156.471695 65.1981433,140.794377 C83.5888434,125.117059 108.009281,117.2784 139.062431,117.2784 C149.312985,117.2784 159.865026,118.18286 171.020041,119.690295 C182.175056,121.197729 193.631558,123.609624 205.691033,126.323006 L205.691033,104.314463 C205.691033,81.4014599 200.867243,65.4226548 191.521149,56.0765612 C181.873569,46.7304677 165.593277,42.2081644 142.378787,42.2081644 C131.826746,42.2081644 120.973218,43.4141119 109.818203,46.1274939 C98.6631879,48.8408759 87.8096599,52.1572317 77.2576188,56.3780481 C72.4338286,58.4884563 68.8159859,59.6944039 66.7055777,60.2973777 C64.5951695,60.9003514 63.087735,61.2018383 61.8817875,61.2018383 C57.6609711,61.2018383 55.5505628,58.1869695 55.5505628,51.8557448 L55.5505628,37.0828873 C55.5505628,32.2590971 56.1535366,28.6412544 57.6609711,26.5308462 C59.1684055,24.420438 61.8817875,22.3100297 66.1026039,20.1996215 C76.654645,14.7728575 89.3170943,10.2505542 104.089952,6.63271154 C118.862809,2.713382 134.540128,0.904460665 151.121906,0.904460665 C186.998846,0.904460665 213.228205,9.04460665 230.111471,25.3248986 C246.69325,41.6051906 255.134883,66.3271154 255.134883,99.4906732 L255.134883,197.172425 L255.737857,197.172425 Z M133.33418,242.998432 C143.283247,242.998432 153.533802,241.189511 164.38733,237.571668 C175.240858,233.953825 184.888438,227.321114 193.028584,218.276507 C197.852374,212.548256 201.470217,206.217032 203.279138,198.981346 C205.088059,191.745661 206.294007,183.002541 206.294007,172.751987 L206.294007,160.089538 C197.550887,157.979129 188.204794,156.170208 178.557213,154.964261 C168.909633,153.758313 159.563539,153.155339 150.217446,153.155339 C130.017824,153.155339 115.244967,157.074669 105.295899,165.214815 C95.3468321,173.354961 90.5230419,184.811463 90.5230419,199.885807 C90.5230419,214.055691 94.1408845,224.607732 101.678057,231.843417 C108.913742,239.380589 119.465783,242.998432 133.33418,242.998432 Z M375.428151,275.559016 C370.001387,275.559016 366.383545,274.654555 363.97165,272.544147 C361.559755,270.735226 359.449346,266.514409 357.640425,260.786158 L286.791006,27.7367937 C284.982085,21.707056 284.077624,17.7877264 284.077624,15.6773182 C284.077624,10.853528 286.489519,8.14014599 291.31331,8.14014599 L320.859025,8.14014599 C326.587275,8.14014599 330.506605,9.04460665 332.617013,11.1550149 C335.028908,12.9639362 336.83783,17.1847526 338.646751,22.9130035 L389.296548,222.497324 L436.328503,22.9130035 C437.835937,16.8832657 439.644859,12.9639362 442.056754,11.1550149 C444.468649,9.34609354 448.689465,8.14014599 454.116229,8.14014599 L478.23518,8.14014599 C483.963431,8.14014599 487.882761,9.04460665 490.294656,11.1550149 C492.706551,12.9639362 494.816959,17.1847526 496.022907,22.9130035 L543.657835,224.909219 L595.815067,22.9130035 C597.623988,16.8832657 599.734396,12.9639362 601.844805,11.1550149 C604.2567,9.34609354 608.176029,8.14014599 613.602793,8.14014599 L641.641074,8.14014599 C646.464864,8.14014599 649.178246,10.5520411 649.178246,15.6773182 C649.178246,17.1847526 648.876759,18.6921871 648.575272,20.5011084 C648.273785,22.3100297 647.670812,24.7219248 646.464864,28.0382806 L573.806524,261.087645 C571.997603,267.117383 569.887194,271.036713 567.475299,272.845634 C565.063404,274.654555 561.144075,275.860503 556.018797,275.860503 L530.090925,275.860503 C524.362674,275.860503 520.443345,274.956042 518.03145,272.845634 C515.619554,270.735226 513.509146,266.815896 512.303199,260.786158 L465.572731,66.3271154 L419.14375,260.484672 C417.636316,266.514409 415.827394,270.433739 413.415499,272.544147 C411.003604,274.654555 406.782788,275.559016 401.356024,275.559016 L375.428151,275.559016 Z M762.838803,283.699162 C747.161485,283.699162 731.484167,281.890241 716.409822,278.272398 C701.335478,274.654555 689.577489,270.735226 681.73883,266.212922 C676.91504,263.49954 673.598684,260.484672 672.392736,257.77129 C671.186789,255.057908 670.583815,252.043039 670.583815,249.329657 L670.583815,233.953825 C670.583815,227.622601 672.99571,224.607732 677.518013,224.607732 C679.326935,224.607732 681.135856,224.909219 682.944777,225.512192 C684.753699,226.115166 687.467081,227.321114 690.48195,228.527061 C700.732504,233.049365 711.887519,236.667207 723.645507,239.079102 C735.704983,241.490998 747.462972,242.696945 759.522447,242.696945 C778.516121,242.696945 793.288979,239.380589 803.539533,232.747878 C813.790087,226.115166 819.216851,216.467586 819.216851,204.106623 C819.216851,195.664991 816.503469,188.730792 811.076705,183.002541 C805.649941,177.27429 795.399387,172.149013 780.626529,167.325223 L736.91093,153.758313 C714.902388,146.824115 698.622096,136.57356 688.673028,123.00665 C678.723961,109.741227 673.598684,94.9683698 673.598684,79.2910516 C673.598684,66.6286023 676.312066,55.4735875 681.73883,45.826007 C687.165594,36.1784266 694.401279,27.7367937 703.445886,21.1040822 C712.490493,14.1698838 722.741047,9.04460665 734.800522,5.42676399 C746.859998,1.80892133 759.522447,0.301486888 772.78787,0.301486888 C779.420582,0.301486888 786.35478,0.602973777 792.987492,1.50743444 C799.92169,2.41189511 806.252915,3.61784266 812.584139,4.82379021 C818.613877,6.33122466 824.342128,7.8386591 829.768892,9.64758043 C835.195656,11.4565018 839.416473,13.2654231 842.431341,15.0743444 C846.652158,17.4862395 849.667027,19.8981346 851.475948,22.6115166 C853.284869,25.0234117 854.18933,28.3397675 854.18933,32.5605839 L854.18933,46.7304677 C854.18933,53.0616923 851.777435,56.3780481 847.255132,56.3780481 C844.843237,56.3780481 840.923907,55.1721006 835.79863,52.7602055 C818.613877,44.9215464 799.318716,41.0022168 777.913147,41.0022168 C760.728395,41.0022168 747.161485,43.7155988 737.815391,49.4438497 C728.469298,55.1721006 723.645507,63.9152203 723.645507,76.2761828 C723.645507,84.7178156 726.660376,91.9535009 732.690114,97.6817518 C738.719852,103.410003 749.874867,109.138254 765.853672,114.263531 L808.66481,127.830441 C830.371866,134.764639 846.049184,144.41222 855.395278,156.773182 C864.741371,169.134144 869.263674,183.304028 869.263674,198.981346 C869.263674,211.945283 866.550292,223.703271 861.425015,233.953825 C855.998251,244.20438 848.762566,253.248986 839.416473,260.484672 C830.070379,268.021844 818.915364,273.448608 805.951428,277.367937 C792.384518,281.588754 778.214634,283.699162 762.838803,283.699162 Z" id="Shape" fill-rule="nonzero"></path>
            <g id="Group" transform="translate(0.000000, 338.242630)">
                <path d="M819.819825,91.9791594 C720.630639,165.240473 576.519906,204.132282 452.608795,204.132282 C278.952347,204.132282 122.480652,139.915575 4.29779181,33.1892162 C-5.04830173,24.7475833 3.39333115,13.2910815 14.548346,19.9237931 C142.378787,94.0895676 300.056429,139.011114 463.160836,139.011114 C573.20355,139.011114 694.099792,116.09811 805.348454,69.0661559 C821.930233,61.5289837 836.100117,79.9196839 819.819825,91.9791594 Z" id="Path"></path>
                <path d="M861.123528,44.9472048 C848.461079,28.6669129 777.310174,37.1085457 745.051076,41.0278753 C735.403496,42.2338228 733.896062,33.79219 742.639181,27.4609653 C799.318716,-12.335304 892.478165,-0.878802206 903.331693,12.3866209 C914.185221,25.9535309 900.316824,119.112979 847.255132,163.733039 C839.114986,170.667237 831.276327,167.049395 834.894169,158.004788 C846.953645,128.157586 873.785978,60.9260099 861.123528,44.9472048 Z" id="Path"></path>
            </g>
        </g>
    </g>
</svg>