<?xml version="1.0" encoding="UTF-8"?>
<svg width="201px" height="201px" viewBox="0 0 201 201" version="1.1" xmlns="http://www.w3.org/2000/svg" xmlns:xlink="http://www.w3.org/1999/xlink">
    <!-- Generator: Sketch 60.1 (88133) - https://sketch.com -->
    <title>Close</title>
    <desc>Created with Sketch.</desc>
    <g id="Close" stroke="none" stroke-width="1" fill="none" fill-rule="evenodd">
        <path d="M198.173437,152.712891 C201.942187,156.481641 201.942187,162.605859 198.173437,166.374609 L166.374609,198.173437 C162.605859,201.942187 156.481641,201.942187 152.712891,198.173437 L100.5,145.489453 L48.2871094,198.173437 C44.5183594,201.942187 38.3941406,201.942187 34.6253906,198.173437 L2.8265625,166.374609 C-0.9421875,162.605859 -0.9421875,156.481641 2.8265625,152.712891 L55.5105469,100.5 L2.8265625,48.2871094 C-0.9421875,44.5183594 -0.9421875,38.3941406 2.8265625,34.6253906 L34.6253906,2.8265625 C38.3941406,-0.9421875 44.5183594,-0.9421875 48.2871094,2.8265625 L100.5,55.5105469 L152.712891,2.8265625 C156.481641,-0.9421875 162.605859,-0.9421875 166.374609,2.8265625 L198.173437,34.6253906 C201.942187,38.3941406 201.942187,44.5183594 198.173437,48.2871094 L145.489453,100.5 L198.173437,152.712891 Z" id="Path" fill="#FFFFFF" fill-rule="nonzero"></path>
    </g>
</svg>