<?xml version="1.0" encoding="UTF-8"?>
<svg width="70px" height="74px" viewBox="0 0 70 74" version="1.1" xmlns="http://www.w3.org/2000/svg" xmlns:xlink="http://www.w3.org/1999/xlink">
    <!-- Generator: Sketch 60.1 (88133) - https://sketch.com -->
    <title>Group</title>
    <desc>Created with Sketch.</desc>
    <g id="Page-1" stroke="none" stroke-width="1" fill="none" fill-rule="evenodd">
        <g id="Group" transform="translate(0.000000, 3.000000)">
            <path d="M5,18.9112219 C5.47788084,37.062513 7.41928045,48.4676728 10.8241988,53.1267014 C13.8488126,57.2653503 17.6964592,59.9902202 23.0087383,61 L37,61 L37,18 L5,18 L5,18.9112219 Z" id="Path" fill="#00C2E6"></path>
            <path d="M29,18.9112219 C29.4778808,37.062513 31.4192804,48.4676728 34.8241988,53.1267014 C37.8488126,57.2653503 41.6964592,59.9902202 47.0087383,61 L61,61 L61,18 L29,18 L29,18.9112219 Z" id="Path-Copy" fill="#00C2E6" transform="translate(45.000000, 39.500000) scale(-1, 1) translate(-45.000000, -39.500000) "></path>
            <path d="M61,26 C65.9705627,26 70,30.2532949 70,35.5 C70,40.7467051 65.9705627,45 61,45 C56.0294373,45 52,40.7467051 52,35.5 C52,30.2532949 56.0294373,26 61,26 Z M61,30.0714286 C58.3235431,30.0714286 56.1538462,32.5018828 56.1538462,35.5 C56.1538462,38.4981172 58.3235431,40.9285714 61,40.9285714 C63.6764569,40.9285714 65.8461538,38.4981172 65.8461538,35.5 C65.8461538,32.5018828 63.6764569,30.0714286 61,30.0714286 Z" id="Combined-Shape" fill="#00C2E6"></path>
            <path d="M68,65 C67.378231,67.6672693 64.8078818,69.341098 60.2889523,70.0214861 C56.917639,70.5290845 50.1009978,70.8391976 39.8390287,70.9518254 L39.8383838,70.9981913 C37.8022624,71.0017157 35.8560026,71.0000892 33.9996042,70.9933119 C32.1446978,71.0000886 30.1981039,71.0017163 28.1616162,70.9981913 L28.1616162,70.9981913 L28.1609713,70.9518254 C17.8990022,70.8391976 11.082361,70.5290845 7.71104767,70.0214861 C3.19211821,69.341098 0.62176899,67.6672693 0,65 Z" id="Combined-Shape" fill="#00C2E6"></path>
            <path d="M22.0422541,0 C18.4819439,2.11733528 21.6460418,5.14874213 22.6756998,7.78959531 C23.7576699,10.5646178 21.94492,12.1441299 20,14" id="Path-4" stroke="#00C2E6" stroke-width="5" stroke-linecap="round"></path>
            <path d="M33.0422541,0 C29.4819439,2.11733528 32.6460418,5.14874213 33.6756998,7.78959531 C34.7576699,10.5646178 32.94492,12.1441299 31,14" id="Path-4-Copy" stroke="#00C2E6" stroke-width="5" stroke-linecap="round"></path>
            <path d="M44.0422541,0 C40.4819439,2.11733528 43.6460418,5.14874213 44.6756998,7.78959531 C45.7576699,10.5646178 43.94492,12.1441299 42,14" id="Path-4-Copy-2" stroke="#00C2E6" stroke-width="5" stroke-linecap="round"></path>
        </g>
    </g>
</svg>