<?xml version="1.0" encoding="UTF-8"?>
<svg width="908px" height="908px" viewBox="0 0 908 908" version="1.1" xmlns="http://www.w3.org/2000/svg" xmlns:xlink="http://www.w3.org/1999/xlink">
    <!-- Generator: Sketch 60.1 (88133) - https://sketch.com -->
    <title>dynamodb</title>
    <desc>Created with Sketch.</desc>
    <g id="dynamodb" stroke="none" stroke-width="1" fill="none" fill-rule="evenodd">
        <g id="aws-dynamodb" transform="translate(51.000000, 0.000000)" fill-rule="nonzero">
            <polyline id="Path" fill="#FFFFFF" points="519.952372 907.712663 530.989616 907.712663 711.150291 817.621314 714.148722 813.383239 714.148722 94.2759375 711.150291 90.0158381 530.989616 0 519.817081 0 519.952372 907.712663"></polyline>
            <polyline id="Path" fill="#929090" points="285.499027 907.712663 274.307614 907.712663 94.301108 817.621314 90.6482457 811.338139 88.795071 97.9382386 94.301108 90.0158381 274.307614 0 285.637464 0 285.499027 907.712663"></polyline>
            <polygon id="Path" fill="#A1A1A1" points="274.625391 0 530.81657 0 530.81657 907.712663 274.625391 907.712663"></polygon>
            <polyline id="Path" fill="#858585" points="805.454545 433.463544 799.366442 432.113778 712.440277 424.008892 711.150291 424.650739 530.829155 417.439403 274.625391 417.439403 94.301108 424.650739 94.301108 287.144545 94.1123295 287.245227 94.301108 286.8425 274.625391 245.059545 530.829155 245.059545 711.150291 286.8425 777.43983 322.07799 777.43983 299.424581 805.454545 296.360078 802.553651 290.703018 713.852969 227.276619 711.150291 228.154439 530.829155 172.279176 274.625391 172.279176 94.301108 228.154439 94.301108 90.0158381 2.09586136e-15 200.492109 2.09586136e-15 296.976754 0.729943182 296.448175 28.0147159 299.424581 28.0147159 322.543643 2.09586136e-15 337.535795 2.09586136e-15 433.539055 0.729943182 433.463544 28.0147159 433.866271 28.0147159 474.161023 4.4740483 474.513409 2.09586136e-15 474.085511 2.09586136e-15 570.126527 28.0147159 585.191044 28.0147159 608.577543 1.17357244 611.541364 0 610.660398 0 707.129311 94.301108 817.621314 94.301108 679.495298 274.625391 735.370561 530.829155 735.370561 711.682017 679.33169 714.085795 680.385703 801.619197 617.893757 805.454545 611.667216 777.43983 608.577543 777.43983 585.659844 773.768089 584.193665 713.852969 616.490504 711.682017 621.021186 530.829155 662.561875 530.829155 662.612216 274.625391 662.612216 274.625391 662.561875 94.301108 620.844993 94.301108 482.835391 274.625391 490.021555 274.625391 490.197749 530.829155 490.197749 711.150291 482.835391 715.256222 484.723175 799.511172 477.467791 805.454545 474.56375 777.43983 474.161023 777.43983 433.866271 805.454545 433.463544"></polyline>
            <path d="M711.150291,679.495298 L711.150291,817.621314 L805.454545,707.129311 L805.454545,611.289659 L711.694602,679.33169 L711.150291,679.495298 M711.150291,621.147038 L711.694602,621.021186 L805.454545,570.59218 L805.454545,474.161023 L711.150291,482.835391 L711.150291,621.147038 M711.694602,286.968352 L711.150291,286.8425 L711.150291,424.650739 L805.454545,433.463544 L805.454545,337.079581 L711.694602,286.968352 M711.694602,228.695604 L805.454545,296.360078 L805.454545,200.51728 L711.150291,90.0158381 L711.150291,228.154439 L711.694602,228.343217 L711.694602,228.695604" id="Shape" fill="#A1A1A1"></path>
        </g>
    </g>
</svg>