<?xml version="1.0" encoding="UTF-8"?>
<svg width="200px" height="200px" viewBox="0 0 200 200" version="1.1" xmlns="http://www.w3.org/2000/svg" xmlns:xlink="http://www.w3.org/1999/xlink">
    <!-- Generator: Sketch 60.1 (88133) - https://sketch.com -->
    <title>graphql</title>
    <desc>Created with Sketch.</desc>
    <g id="graphql" stroke="none" stroke-width="1" fill="none" fill-rule="evenodd">
        <g id="download" transform="translate(11.000000, 0.000000)" fill="#FFFFFF" fill-rule="nonzero">
            <path d="M168,146 L11,146 L89.4418519,10 L168,146 Z M20.9433333,140.188034 L157.94037,140.188034 L89.4418519,21.6239316 L20.9433333,140.188034 Z" id="_Compound_Path_"></path>
            <path d="M90,181 L16,140.851678 L16,60.1483219 L90,20 L164,60.1483219 L164,140.851678 L90,181 Z M21.7857701,137.365572 L90,174.202093 L158.21423,137.191267 L158.21423,63.8087333 L90,26.6236016 L21.7857701,63.8087333 L21.7857701,137.365572 Z" id="_Compound_Path_2"></path>
            <circle id="_Path_" cx="18" cy="59" r="18"></circle>
            <circle id="_Path_2" cx="160" cy="59" r="18"></circle>
            <circle id="_Path_3" cx="160" cy="142" r="18"></circle>
            <circle id="_Path_4" cx="18" cy="142" r="18"></circle>
            <circle id="_Path_5" cx="89" cy="182" r="18"></circle>
            <circle id="_Path_6" cx="89" cy="18" r="18"></circle>
        </g>
    </g>
</svg>