<?xml version="1.0" encoding="UTF-8"?>
<svg width="200px" height="200px" viewBox="0 0 200 200" version="1.1" xmlns="http://www.w3.org/2000/svg" xmlns:xlink="http://www.w3.org/1999/xlink">
    <!-- Generator: Sketch 60.1 (88133) - https://sketch.com -->
    <title>heroku</title>
    <desc>Created with Sketch.</desc>
    <g id="heroku" stroke="none" stroke-width="1" fill="none" fill-rule="evenodd">
        <g id="heroku-(1)" transform="translate(10.000000, 0.000000)" fill="#FFFFFF">
            <path d="M161.949861,0 L18.0501393,0 C8.02228412,0 0,8 0,18 L0,182 C0,192 8.02228412,200 18.0501393,200 L161.949861,200 C171.977716,200 180,192 180,182 L180,18 C180,8 171.977716,0 161.949861,0 Z M169.972145,182 C169.972145,186.5 166.462396,190 161.949861,190 L18.0501393,190 C13.5376045,190 10.0278552,186.5 10.0278552,182 L10.0278552,18 C10.0278552,13.5 13.5376045,10 18.0501393,10 L161.949861,10 C166.462396,10 169.972145,13.5 169.972145,18 L169.972145,182 Z M45.1253482,170 L67.6880223,150 L45.1253482,130 L45.1253482,170 Z M126.350975,89 C122.339833,85 114.818942,80 102.284123,80 C88.7465181,80 74.7075209,83.5 64.6796657,87 L64.6796657,30 L44.6239554,30 L44.6239554,116.5 L58.6629526,110 C58.6629526,110 81.7270195,99.5 101.78273,99.5 C111.810585,99.5 114.317549,105 114.317549,110 L114.317549,170 L134.373259,170 L134.373259,110 C134.874652,108.5 134.874652,97.5 126.350975,89 L126.350975,89 Z M99.7771588,62.5 L119.832869,62.5 C128.857939,52 133.370474,41.5 134.874652,30 L114.818942,30 C112.81337,41.5 107.799443,52 99.7771588,62.5 Z" id="Shape"></path>
        </g>
    </g>
</svg>