<?xml version="1.0" encoding="UTF-8"?>
<svg width="200px" height="200px" viewBox="0 0 200 200" version="1.1" xmlns="http://www.w3.org/2000/svg" xmlns:xlink="http://www.w3.org/1999/xlink">
    <!-- Generator: Sketch 60.1 (88133) - https://sketch.com -->
    <title>jest</title>
    <desc>Created with Sketch.</desc>
    <g id="jest" stroke="none" stroke-width="1" fill="none" fill-rule="evenodd">
        <g id="download" transform="translate(10.000000, 0.000000)">
            <path d="M117.942308,56 L106,79.5045593 C109.923077,83.0471125 112.692308,87.7142857 113.788462,93 L122.788462,93 C123.826923,87.9954407 126.365385,83.4969605 130,80.0106383 L117.942308,56 Z" id="Path"></path>
            <path d="M97.2294978,72.7124304 L119.028608,28.4267161 L140.770502,73 C141.628735,72.7124304 142.486968,72.4823748 143.3452,72.2523191 L164,11 L74,11 L94.5975842,72.0797774 C95.4558169,72.2523191 96.3712651,72.4823748 97.2294978,72.7124304 Z" id="Path"></path>
            <path d="M90.0592885,114 C98.3003953,114 105,107.247012 105,98.940239 C105,95.8924303 104.110672,93.0836653 102.56917,90.6932271 C102.094862,89.9163347 101.501976,89.1992032 100.909091,88.5418327 C100.909091,88.5418327 100.849802,88.4820717 100.849802,88.4820717 C100.256917,87.8247012 99.5454545,87.2270916 98.8339921,86.749004 C98.8339921,86.749004 98.7747036,86.689243 98.7747036,86.689243 C98.5968379,86.5697211 98.3596838,86.3904382 98.1225296,86.2709163 C98.0632411,86.2709163 98.0632411,86.2111554 98.0039526,86.2111554 C97.7667984,86.0916335 97.5296443,85.9123506 97.2924901,85.7928287 C97.2924901,85.7928287 97.2924901,85.7928287 97.2332016,85.7928287 C96.9960474,85.6733068 96.6996047,85.4940239 96.4624506,85.374502 C96.4624506,85.374502 96.4031621,85.374502 96.4031621,85.374502 C96.1660079,85.2549801 95.9288538,85.1354582 95.6916996,85.0756972 C95.6324111,85.0756972 95.5731225,85.0159363 95.513834,85.0159363 C95.3359684,84.9561753 95.0988142,84.8366534 94.9209486,84.7768924 C94.8616601,84.7768924 94.8023715,84.7171315 94.6837945,84.7171315 C94.4466403,84.6573705 94.2094862,84.5378486 93.972332,84.4780876 C93.9130435,84.4780876 93.9130435,84.4780876 93.9130435,84.4780876 C93.6166008,84.4183267 93.3794466,84.3585657 93.083004,84.2988048 C93.0237154,84.2988048 92.9644269,84.2988048 92.8458498,84.2390438 C92.6086957,84.1792829 92.43083,84.1792829 92.1936759,84.1195219 C92.0750988,84.1195219 92.0158103,84.1195219 91.8972332,84.059761 C91.7193676,84.059761 91.4822134,84 91.3043478,84 C91.1857708,84 91.1264822,84 91.0079051,84 C90.7114625,84 90.4150198,84 90.1185771,84 C89.8221344,84 89.5256917,84 89.229249,84 C89.1699605,84 89.0513834,84 88.9920949,84 C88.7549407,84 88.5770751,84.059761 88.3399209,84.059761 C88.2806324,84.059761 88.2213439,84.059761 88.1027668,84.059761 C87.8656126,84.1195219 87.6284585,84.1195219 87.3913043,84.1792829 C87.3320158,84.1792829 87.2727273,84.1792829 87.2134387,84.1792829 C86.916996,84.2390438 86.6798419,84.2988048 86.3833992,84.3585657 C79.8616601,85.9721116 75,91.9482072 75,99 C75.1185771,107.187251 81.8181818,114 90.0592885,114 Z" id="Path"></path>
            <path d="M150.607143,84.0594059 C150.547619,84.0594059 150.547619,84.0594059 150.488095,84.0594059 C150.25,84.0594059 150.071429,84 149.833333,84 C149.595238,84 149.357143,84 149.059524,84 C148.761905,84 148.464286,84 148.107143,84.0594059 C147.988095,84.0594059 147.928571,84.0594059 147.809524,84.0594059 C147.571429,84.0594059 147.333333,84.1188119 147.095238,84.1188119 C147.035714,84.1188119 146.916667,84.1188119 146.857143,84.1782178 C146.559524,84.2376238 146.261905,84.2970297 145.964286,84.3564356 C145.964286,84.3564356 145.904762,84.3564356 145.904762,84.3564356 C145.607143,84.4158416 145.369048,84.4752475 145.071429,84.5346535 C145.011905,84.5346535 144.892857,84.5940594 144.833333,84.5940594 C144.595238,84.6534653 144.357143,84.7128713 144.119048,84.8316832 C144.059524,84.8316832 144,84.8910891 143.940476,84.8910891 C143.642857,85.009901 143.345238,85.1287129 143.107143,85.2475248 C143.107143,85.2475248 143.107143,85.2475248 143.107143,85.2475248 C142.809524,85.3663366 142.571429,85.4851485 142.27381,85.6039604 C142.214286,85.6039604 142.154762,85.6633663 142.095238,85.6633663 C141.857143,85.7821782 141.619048,85.9009901 141.380952,86.0792079 C141.380952,86.0792079 141.321429,86.0792079 141.321429,86.1386139 C140.785714,86.4356436 140.25,86.7920792 139.77381,87.2079208 C139.77381,87.2079208 139.714286,87.2673267 139.714286,87.2673267 C138.940476,87.8613861 138.285714,88.5148515 137.630952,89.2277228 C137.630952,89.2277228 137.630952,89.2277228 137.630952,89.2277228 C136.97619,89.9405941 136.440476,90.7722772 135.964286,91.6039604 C134.714286,93.8019802 134,96.3564356 134,99.029703 C134,107.287129 140.72619,114 149,114 C157.27381,114 164,107.287129 164,99.029703 C164,91.7821782 158.761905,85.6633663 151.916667,84.2970297 C151.559524,84.1782178 151.083333,84.1188119 150.607143,84.0594059 Z" id="Path"></path>
            <path d="M30,114 C38.2738095,114 45,107.27381 45,99 C45,90.7261905 38.2738095,84 30,84 C21.7261905,84 15,90.7261905 15,99 C15,107.27381 21.7261905,114 30,114 Z" id="Path"></path>
            <path d="M149.411078,124.514563 C137.408324,124.514563 127.309852,116.184466 124.424575,105 L114.730042,105 C111.844764,116.184466 101.746293,124.514563 89.7435383,124.514563 C88.3586051,124.514563 87.0313774,124.398058 85.7618553,124.223301 C82.4149333,129.407767 78.4332503,134.184466 73.7591006,138.61165 C65.5072068,146.475728 56.1589075,152.300971 46.060436,155.970874 L43.6945084,156.84466 L41.5016974,155.679612 C29.3835317,149.38835 23.1513321,136.631068 25.3441431,124.281553 C23.9592099,124.048544 22.6319822,123.699029 21.36246,123.23301 C21.1316378,123.640777 20.9585212,124.106796 20.727699,124.572816 C17.0345437,132.262136 13.1682718,140.184466 11.7833385,148.68932 C10.2829942,157.776699 9.64823313,174.378641 22.3434544,183.23301 C27.8831873,187.07767 33.711448,189 40.2321753,189 C52.7542799,189 66.2573789,182.242718 80.5683557,175.07767 C91.7632326,169.485437 103.304343,163.660194 115.307098,160.68932 C119.865836,159.582524 124.48228,158.883495 128.925608,158.242718 C137.06209,157.07767 144.794634,155.912621 151.084539,152.242718 C157.778383,148.339806 162.337122,141.815534 163.606644,134.359223 C164.414522,129.815534 163.952877,125.213592 162.452533,120.961165 C158.643967,123.174757 154.200639,124.514563 149.411078,124.514563 Z" id="Path"></path>
            <path d="M175.52497,98.4944991 C175.52497,86.4504922 167.283608,76.3173133 156.218284,73.4221193 L181,0 L58.1864267,0 L83.0257745,73.6537348 C72.3062416,76.7805443 64.4106716,86.7400116 64.4106716,98.552403 C64.4106716,107.237985 68.7330639,114.939201 75.3031002,119.687319 C72.7096648,123.393167 69.7128062,126.809496 66.3125242,130.052113 C59.9153836,136.074117 52.8266603,140.706427 45.1616179,143.775333 C38.2457902,139.085119 35.2489316,130.804864 37.9576307,123.393167 C48.504268,120.15055 56.1693103,110.248987 56.1693103,98.6103069 C56.1693103,84.3080486 44.5852989,72.7272727 30.4078522,72.7272727 C16.1727735,72.7272727 4.58876216,84.3659525 4.58876216,98.6682108 C4.58876216,105.732484 7.47035703,112.217719 12.0809088,116.850029 C11.6774855,117.660683 11.2740623,118.471338 10.870639,119.339896 C7.00930185,127.330631 2.62927765,136.363636 0.957952628,146.496815 C-2.38469742,166.763173 3.09033283,183.034163 16.2880373,192.24088 C23.7225521,197.394325 31.9062815,200 40.7239618,200 C55.8811508,200 71.2688674,192.356688 86.1378969,184.944991 C96.7421661,179.675738 107.692227,174.17487 118.469391,171.511291 C122.445992,170.526925 126.595489,169.947887 130.975513,169.310944 C139.850825,168.037058 149.014297,166.705269 157.255658,161.899247 C166.880185,156.282571 173.450221,146.902142 175.352074,136.132021 C176.792871,127.851766 175.352074,119.513607 171.663633,112.217719 C174.141804,108.222351 175.52497,103.532137 175.52497,98.4944991 Z M164.28675,98.4944991 C164.28675,106.543138 157.774345,113.086277 149.763512,113.086277 C141.752678,113.086277 135.240273,106.543138 135.240273,98.4944991 C135.240273,95.8888246 135.931856,93.3989577 137.142126,91.2565142 C137.603181,90.4458599 138.1795,89.6352056 138.755819,88.940359 C138.755819,88.940359 138.755819,88.940359 138.755819,88.940359 C139.332138,88.2455124 140.023721,87.6085698 140.772936,87.029531 C140.772936,87.029531 140.830568,86.9716271 140.830568,86.9716271 C141.291623,86.6242038 141.81031,86.2767805 142.328997,85.9293573 C142.328997,85.9293573 142.386629,85.9293573 142.386629,85.8714534 C142.617156,85.7556456 142.847684,85.581934 143.078212,85.4661262 C143.135843,85.4661262 143.193475,85.4082224 143.251107,85.4082224 C143.481635,85.2924146 143.769794,85.1766068 144.057954,85.0607991 C144.057954,85.0607991 144.057954,85.0607991 144.057954,85.0607991 C144.346113,84.9449913 144.634273,84.8291836 144.8648,84.7133758 C144.922432,84.7133758 144.980064,84.6554719 145.037696,84.6554719 C145.268224,84.597568 145.498751,84.4817603 145.729279,84.4238564 C145.786911,84.4238564 145.902175,84.3659525 145.959806,84.3659525 C146.247966,84.3080486 146.478493,84.2501448 146.766653,84.1922409 C146.766653,84.1922409 146.824285,84.1922409 146.824285,84.1922409 C147.112444,84.134337 147.400604,84.0764331 147.688763,84.0185292 C147.746395,84.0185292 147.861659,84.0185292 147.919291,83.9606254 C148.149819,83.9606254 148.380346,83.9027215 148.610874,83.9027215 C148.726137,83.9027215 148.783769,83.9027215 148.899033,83.9027215 C149.187193,83.9027215 149.475352,83.8448176 149.821144,83.8448176 C150.051671,83.8448176 150.282199,83.8448176 150.570358,83.8448176 C150.800886,83.8448176 150.973781,83.8448176 151.204309,83.9027215 C151.261941,83.9027215 151.261941,83.9027215 151.319573,83.9027215 C151.780628,83.9606254 152.241683,84.0185292 152.702738,84.134337 C159.272775,85.5240301 164.28675,91.4302258 164.28675,98.4944991 Z M74.2657261,11.5807759 L164.920701,11.5807759 L144.115586,73.2484076 C143.251107,73.4221193 142.386629,73.7116387 141.52215,74.0011581 L119.622029,29.1256514 L97.6642764,73.7116387 C96.7997979,73.4221193 95.8776876,73.2484076 94.9555772,73.074696 L74.2657261,11.5807759 Z M115.472533,93.4568616 C114.377527,88.0138969 111.611196,83.149971 107.692227,79.5599305 L119.622029,55.3561089 L131.667096,80.0810654 C128.093918,83.671106 125.500483,88.2455124 124.463109,93.4568616 L115.472533,93.4568616 Z M86.5989521,84.3080486 C86.8871116,84.2501448 87.1176392,84.1922409 87.4057987,84.134337 C87.4634306,84.134337 87.5210625,84.134337 87.5786944,84.134337 C87.809222,84.0764331 88.0397495,84.0764331 88.2702771,84.0185292 C88.327909,84.0185292 88.3855409,84.0185292 88.5008047,84.0185292 C88.7313323,84.0185292 88.904228,83.9606254 89.1347556,83.9606254 C89.1923875,83.9606254 89.3076513,83.9606254 89.3652832,83.9606254 C89.6534427,83.9606254 89.9416022,83.9606254 90.2297616,83.9606254 C90.5179211,83.9606254 90.8060806,83.9606254 91.0942401,83.9606254 C91.2095039,83.9606254 91.2671358,83.9606254 91.3823996,83.9606254 C91.6129272,83.9606254 91.7858229,84.0185292 91.9587186,84.0185292 C92.0739824,84.0185292 92.1316143,84.0185292 92.2468781,84.0764331 C92.4774056,84.134337 92.6503013,84.134337 92.8808289,84.1922409 C92.9384608,84.1922409 92.9960927,84.1922409 93.1113565,84.2501448 C93.399516,84.3080486 93.6876755,84.3659525 93.9182031,84.4238564 C93.975835,84.4238564 93.975835,84.4238564 93.975835,84.4238564 C94.2063626,84.4817603 94.4368902,84.5396642 94.6674177,84.6554719 C94.7250496,84.6554719 94.7826815,84.7133758 94.8979453,84.7133758 C95.070841,84.7712797 95.3013686,84.8291836 95.4742643,84.9449913 C95.5318962,84.9449913 95.5895281,85.0028952 95.64716,85.0028952 C95.8776876,85.118703 96.1082152,85.1766068 96.3387428,85.2924146 C96.3387428,85.2924146 96.3963747,85.2924146 96.3963747,85.2924146 C96.6845342,85.4082224 96.9150617,85.5240301 97.1455893,85.6977417 C97.1455893,85.6977417 97.1455893,85.6977417 97.2032212,85.6977417 C97.4337488,85.8135495 97.6642764,85.9872611 97.894804,86.1030689 C97.9524359,86.1030689 97.9524359,86.1609728 98.0100678,86.1609728 C98.2405954,86.2767805 98.4134911,86.4504922 98.6440187,86.5662999 C98.6440187,86.5662999 98.7016506,86.6242038 98.7016506,86.6242038 C99.3932333,87.1453387 100.027184,87.7243775 100.661135,88.3034163 C100.661135,88.3034163 100.718767,88.3613202 100.718767,88.3613202 C101.295086,88.9982629 101.871405,89.6931094 102.33246,90.4458599 C103.830889,92.7620151 104.695368,95.4834974 104.695368,98.4365953 C104.695368,106.485235 98.1829635,113.028373 90.1721298,113.028373 C82.161296,113.028373 75.6488916,106.485235 75.6488916,98.4365953 C75.5912597,91.6618413 80.2594434,85.9293573 86.5989521,84.3080486 Z M29.8891651,83.9027215 C37.8999988,83.9027215 44.4124032,90.4458599 44.4124032,98.4944991 C44.4124032,106.543138 37.8999988,113.086277 29.8891651,113.086277 C21.8783314,113.086277 15.365927,106.543138 15.365927,98.4944991 C15.365927,90.4458599 21.8783314,83.9027215 29.8891651,83.9027215 Z M163.940958,134.105385 C162.673057,141.517082 158.120137,148.002316 151.434837,151.881876 C145.15296,155.52982 137.430286,156.687898 129.304188,157.845976 C124.866532,158.482918 120.198348,159.177765 115.70306,160.277939 C103.715626,163.231036 92.1892462,169.021424 81.0086581,174.580197 C66.7159475,181.702374 53.2300835,188.419224 40.7239618,188.419224 C34.2115574,188.419224 28.3907358,186.5663 22.8580736,182.68674 C10.1790562,173.88535 10.8130071,157.382745 12.3114364,148.349739 C13.6946019,139.895773 17.5559391,131.962942 21.2443805,124.377533 C21.4749081,123.914302 21.6478038,123.508975 21.8783314,123.045744 C23.1462331,123.508975 24.4717668,123.856398 25.8549323,124.088014 C23.6649202,136.363636 29.8891651,149.044586 41.9918636,155.298205 L44.1818757,156.456283 L46.5447834,155.587724 C56.6303655,151.997684 65.9667329,146.149392 74.2080942,138.332368 C78.8762779,133.931673 82.8528788,129.183555 86.1955288,124.03011 C87.5210625,124.261726 88.8465961,124.319629 90.1721298,124.319629 C102.159564,124.319629 112.245146,116.039375 115.126741,104.92183 L124.8089,104.92183 C127.690495,116.097279 137.776077,124.319629 149.763512,124.319629 C154.546959,124.319629 158.984615,122.98784 162.78832,120.729589 C164.28675,125.07238 164.747805,129.588882 163.940958,134.105385 Z" id="Shape" fill="#FFFFFF" fill-rule="nonzero"></path>
        </g>
    </g>
</svg>