<?xml version="1.0" encoding="UTF-8"?>
<svg width="866px" height="908px" viewBox="0 0 866 908" version="1.1" xmlns="http://www.w3.org/2000/svg" xmlns:xlink="http://www.w3.org/1999/xlink">
    <!-- Generator: Sketch 60.1 (88133) - https://sketch.com -->
    <title>lambda</title>
    <desc>Created with Sketch.</desc>
    <g id="lambda" stroke="none" stroke-width="1" fill="none" fill-rule="evenodd">
        <g id="aws-lambda" transform="translate(57.000000, 0.000000)" fill-rule="nonzero">
            <polyline id="Path" fill="#858585" points="0 719.988657 47.9146988 743.946007 55.7762087 729.987277 55.7762087 174.177357 47.9146988 163.920406 0 187.877756 0 719.988657"></polyline>
            <polyline id="Path" fill="#FFFFFF" points="139.963057 186.615452 47.9146988 163.920406 47.9146988 743.946007 139.963057 722.510329 139.963057 186.615452"></polyline>
            <polyline id="Path" fill="#858585" points="422.410842 230.749111 487.977243 196.705074 706.117995 281.185481 648.116609 288.750497 422.410842 230.749111"></polyline>
            <polyline id="Path" fill="#ADADAD" points="424.932514 677.117302 489.239547 711.161338 707.377363 626.680931 649.375977 619.112981 424.932514 677.117302"></polyline>
            <path d="M441.324848,583.806641 L556.068251,598.939607 L562.655715,587.117986 L562.655715,322.914892 L556.068251,308.926806 L441.324848,324.056837 L441.324848,583.806641 M104.656717,134.919713 L175.269397,99.6133731 L182.984127,114.488007 L182.984127,792.609281 L175.269397,808.25304 L104.656717,772.9467 L104.656717,134.919713" id="Shape" fill="#858585"></path>
            <polyline id="Path" fill="#FFFFFF" points="319.013493 760.338341 175.269397 806.990736 175.269397 99.6133731 319.013493 146.268704 319.013493 760.338341"></polyline>
            <path d="M263.533779,851.124395 L375.755511,907.866413 L387.497871,894.377377 L387.497871,16.6359881 L375.755511,0 L263.533779,56.7420178 L263.533779,851.124395 M645.592002,288.750497 L703.596323,281.185481 L708.578019,288.421711 L708.578019,619.409475 L703.596323,627.9403 L645.592002,620.375284 L645.592002,288.750497" id="Shape" fill="#858585"></path>
            <polyline id="Path" fill="#FFFFFF" points="556.068251 308.926806 556.068251 600.198975 675.854998 453.933206 556.068251 308.926806"></polyline>
            <path d="M703.596323,163.920406 L375.755511,0 L375.755511,907.866413 L751.511022,719.988657 L751.511022,187.877756 L703.596323,163.920406 Z M703.596323,628.380638 L487.977243,692.775739 L487.977243,215.090674 L703.596323,279.485775 L703.596323,628.380638 Z" id="Shape" fill="#FFFFFF"></path>
        </g>
        <rect id="Rectangle" fill="#FFFFFF" x="865.795071" y="-140" width="1290" height="1610"></rect>
    </g>
</svg>