<?xml version="1.0" encoding="UTF-8"?>
<svg width="71px" height="75px" viewBox="0 0 71 75" version="1.1" xmlns="http://www.w3.org/2000/svg" xmlns:xlink="http://www.w3.org/1999/xlink">
    <!-- Generator: Sketch 60.1 (88133) - https://sketch.com -->
    <title>Group 2</title>
    <desc>Created with Sketch.</desc>
    <g id="Page-1" stroke="none" stroke-width="1" fill="none" fill-rule="evenodd">
        <g id="Group-2" transform="translate(1.000000, 3.000000)" fill="#7180AD" stroke="#7180AD">
            <path d="M5,18.9112219 C5.47788084,37.062513 7.41928045,48.4676728 10.8241988,53.1267014 C13.8488126,57.2653503 17.6964592,59.9902202 23.0087383,61 L37,61 L37,18 L5,18 L5,18.9112219 Z" id="Path"></path>
            <path d="M29,18.9112219 C29.4778808,37.062513 31.4192804,48.4676728 34.8241988,53.1267014 C37.8488126,57.2653503 41.6964592,59.9902202 47.0087383,61 L61,61 L61,18 L29,18 L29,18.9112219 Z" id="Path-Copy" transform="translate(45.000000, 39.500000) scale(-1, 1) translate(-45.000000, -39.500000) "></path>
            <path d="M61,51 C70.1478665,51 77,43.7671924 77,35.5 C77,27.2328076 70.1478665,20 61,20 C51.8521335,20 45,27.2328076 45,35.5 C45,43.7671924 51.8521335,51 61,51 Z M61,5.07142857 C78.1556175,5.07142857 90.8461538,19.2871314 90.8461538,35.5 C90.8461538,51.7128686 78.1556175,65.9285714 61,65.9285714 C43.8443825,65.9285714 31.1538462,51.7128686 31.1538462,35.5 C31.1538462,19.2871314 43.8443825,5.07142857 61,5.07142857 Z" id="Combined-Shape" stroke-width="50"></path>
            <path d="M68,65 C67.378231,67.6672693 64.8078818,69.341098 60.2889523,70.0214861 C56.917639,70.5290845 50.1009978,70.8391976 39.8390287,70.9518254 L39.8383838,70.9981913 C37.8022624,71.0017157 35.8560026,71.0000892 33.9996042,70.9933119 C32.1446978,71.0000886 30.1981039,71.0017163 28.1616162,70.9981913 L28.1616162,70.9981913 L28.1609713,70.9518254 C17.8990022,70.8391976 11.082361,70.5290845 7.71104767,70.0214861 C3.19211821,69.341098 0.62176899,67.6672693 0,65 Z" id="Combined-Shape"></path>
            <path d="M22.0422541,0 C18.4819439,2.11733528 21.6460418,5.14874213 22.6756998,7.78959531 C23.7576699,10.5646178 21.94492,12.1441299 20,14" id="Path-4" stroke-width="5" stroke-linecap="round"></path>
            <path d="M33.0422541,0 C29.4819439,2.11733528 32.6460418,5.14874213 33.6756998,7.78959531 C34.7576699,10.5646178 32.94492,12.1441299 31,14" id="Path-4-Copy" stroke-width="5" stroke-linecap="round"></path>
            <path d="M44.0422541,0 C40.4819439,2.11733528 43.6460418,5.14874213 44.6756998,7.78959531 C45.7576699,10.5646178 43.94492,12.1441299 42,14" id="Path-4-Copy-2" stroke-width="5" stroke-linecap="round"></path>
        </g>
    </g>
</svg>