<?xml version="1.0" encoding="UTF-8"?>
<svg width="200px" height="200px" viewBox="0 0 200 200" version="1.1" xmlns="http://www.w3.org/2000/svg" xmlns:xlink="http://www.w3.org/1999/xlink">
    <!-- Generator: Sketch 60.1 (88133) - https://sketch.com -->
    <title>storyblok</title>
    <desc>Created with Sketch.</desc>
    <defs>
        <linearGradient x1="-0.000499207466%" y1="50.0016494%" x2="99.9999695%" y2="50.0016494%" id="linearGradient-1" offset="100%">
            <stop stop-color="#FFFFFF"></stop>
            <stop stop-color="#09B3AF"></stop>
        </linearGradient>
        <linearGradient x1="0.00316255534%" y1="50.0152266%" x2="100.001581%" y2="50.0152266%" id="linearGradient-2">
            <stop stop-color="#FFFFFF" offset="99.9604096%"></stop>
            <stop stop-color="#09B3AF" offset="100%"></stop>
        </linearGradient>
        <linearGradient x1="99.9996419%" y1="49.9998557%" x2="99.9996419%" y2="49.9998557%" id="linearGradient-3" offset="100%">
            <stop stop-color="#FFFFFF"></stop>
            <stop stop-color="#09B3AF"></stop>
        </linearGradient>
    </defs>
    <g id="storyblok" stroke="none" stroke-width="1" fill="none" fill-rule="evenodd">
        <g id="Standalone" transform="translate(13.000000, 0.000000)" fill-rule="nonzero">
            <path d="M92.7452243,110.020544 L63.3486352,111.512761 C56.5078467,111.824953 53.9884696,114.674773 54,118.386699 C54.0058247,122.095761 57.1470917,125 62.8974035,125 L93.5580199,124.831016 C100.309141,124.808103 104.008662,121.439873 104,117.200944 C103.991307,112.993522 99.5513025,109.708353 92.7452243,110.020544 Z" id="Shape" fill="url(#linearGradient-1)"></path>
            <path d="M99.1694603,56 C98.3838287,56 97.577904,56.0620298 96.7690803,56.1860894 L63.2101518,61.4231777 C56.5801181,62.4363313 54,65.5260065 54,69.8001558 C54,73.0227521 58.1919671,76.3103321 63.4246785,75.9765526 C64.0740566,75.9765526 64.7350306,75.9440608 65.3989036,75.8702158 L96.8618495,73.9354765 C103.555661,73.2354258 109,68.58319 109,63.5764982 C109,59.1901045 104.868912,56 99.1694603,56 Z" id="Shape" fill="url(#linearGradient-2)"></path>
            <path d="M171.709739,2.51330958 C170.155407,0.894518905 167.948315,0 165.492412,0 C164.947957,0 164.380084,0.0461687181 163.812212,0.132735064 L10.5598084,24.0135044 C4.48298691,24.9628486 -0.250259895,30.6617998 0.0102589467,36.721444 L5.1503835,156.670658 C5.40504798,162.71299 10.6827499,167.679012 16.8151878,167.75115 L43.0397754,168.042591 L43.0397754,200 L67.8212642,168.310946 L157.220207,169.297803 C163.270684,169.297803 168.267377,164.447202 168.387391,158.488552 L173.981228,9.21354475 C174.136369,6.5790423 173.32554,4.20712442 171.709739,2.51330958 Z M125.548142,87.7523049 C146.000334,89.2123907 144.015707,110.060453 144.015707,110.060453 L143.702499,129.038681 C142.54041,141.547517 132.119656,146.530853 123.264942,146.467372 L115.127388,146.51354 L38.6548627,145.39972 C31.8403924,145.333353 26.062143,139.764251 25.7752796,133.19098 L22.4295152,56.8048363 C22.1426517,50.2546494 27.3676644,44.0940111 34.0767564,43.0696427 L125.220297,29.1728586 C125.220297,29.1728586 147.484413,25.5226444 147.033627,47.4787553 L145.218778,66.0558931 C144.791409,72.5541402 142.642861,84.829248 125.548142,87.7523049 L125.548142,87.7523049 Z" id="Shape" fill="url(#linearGradient-3)"></path>
        </g>
    </g>
</svg>